<?xml version="1.0" encoding="UTF-8" standalone="no"?>
<!-- Created with Inkscape (http://www.inkscape.org/) -->

<svg
   width="332.58347mm"
   height="385.43646mm"
   viewBox="0 0 332.58346 385.43645"
   version="1.1"
   id="svg1041"
   sodipodi:docname="TreeBaggingCartoon.svg"
   inkscape:version="1.1.2 (1:1.1+202202050950+0a00cf5339)"
   xmlns:inkscape="http://www.inkscape.org/namespaces/inkscape"
   xmlns:sodipodi="http://sodipodi.sourceforge.net/DTD/sodipodi-0.dtd"
   xmlns="http://www.w3.org/2000/svg"
   xmlns:svg="http://www.w3.org/2000/svg"
   xmlns:ns0="http://www.iki.fi/pav/software/textext/">
  <sodipodi:namedview
     id="namedview1043"
     pagecolor="#ffffff"
     bordercolor="#666666"
     borderopacity="1.0"
     inkscape:pageshadow="2"
     inkscape:pageopacity="0.0"
     inkscape:pagecheckerboard="0"
     inkscape:document-units="mm"
     showgrid="false"
     inkscape:zoom="0.11322959"
     inkscape:cx="-1673.5908"
     inkscape:cy="1426.3056"
     inkscape:window-width="1848"
     inkscape:window-height="1016"
     inkscape:window-x="1152"
     inkscape:window-y="441"
     inkscape:window-maximized="1"
     inkscape:current-layer="layer1"
     fit-margin-top="0.5"
     fit-margin-left="0.5"
     fit-margin-right="0.5"
     fit-margin-bottom="0.5"
     lock-margins="true" />
  <defs
     id="defs1038" />
  <g
     inkscape:label="Layer 1"
     inkscape:groupmode="layer"
     id="layer1"
     transform="translate(18.705838,223.37724)">
    <rect
       style="fill:#408bd0;fill-opacity:1;stroke:none;stroke-width:1;stroke-linecap:round;stroke-linejoin:round;stroke-opacity:0.45098"
       id="rect1173"
       width="33.861607"
       height="41.134541"
       x="93.691696"
       y="-222.87724" />
    <g
       transform="matrix(0.14499393,0,0,-0.14499393,28.098225,-85.741518)"
       id="g920">
      <g
         style="opacity:1;fill:none;fill-rule:nonzero;stroke:none;stroke-width:0;stroke-linecap:butt;stroke-linejoin:miter;stroke-miterlimit:10;stroke-dasharray:none"
         transform="matrix(3.89,0,0,3.89,-175.05,-175.05)"
         id="g918">
        <path
           d="m 85.211,47.425 c 0.3,-0.873 0.465,-1.809 0.465,-2.785 0,-1.807 -0.561,-3.482 -1.516,-4.864 1.814,-1.571 2.964,-3.89 2.964,-6.478 0,-4.36 -3.258,-7.957 -7.471,-8.496 0.315,-0.853 0.488,-1.774 0.488,-2.736 0,-4.358 -3.533,-7.892 -7.892,-7.892 0,-4.358 -3.533,-7.892 -7.892,-7.892 -1.805,0 -3.468,0.608 -4.798,1.628 -1.439,-1.929 -3.738,-3.178 -6.33,-3.178 -0.218,0 -0.434,0.011 -0.648,0.029 C 51.37,1.959 48.583,0 45.338,0 41.939,0 39.042,2.149 37.931,5.163 37.325,5.014 36.692,4.933 36.04,4.933 c -3.997,0 -7.297,2.971 -7.818,6.825 -0.246,-0.023 -0.496,-0.036 -0.748,-0.036 -4.288,0 -7.775,3.421 -7.886,7.683 -0.458,-0.083 -0.929,-0.128 -1.411,-0.128 -4.358,0 -7.892,3.533 -7.892,7.892 0,2.127 0.843,4.055 2.21,5.474 -0.202,-0.013 -0.406,-0.022 -0.611,-0.022 -5.106,0 -9.246,4.139 -9.246,9.246 0,4.114 2.688,7.599 6.403,8.798 -0.576,1.206 -0.899,2.555 -0.899,3.981 0,5.106 4.139,9.246 9.246,9.246 1.341,0 2.613,-0.288 3.763,-0.801 1.671,1.655 3.969,2.678 6.506,2.678 4.198,0 7.74,-2.799 8.868,-6.632 1.338,0.986 2.991,1.57 4.781,1.57 1.334,0 2.591,-0.326 3.699,-0.899 C 45.003,59.877 45,59.945 45,60.014 c 0,4.358 3.533,7.892 7.892,7.892 2.822,0 5.297,-1.483 6.692,-3.711 1.524,1.395 3.554,2.247 5.784,2.247 4.008,0 7.372,-2.752 8.309,-6.469 1.428,1.064 3.198,1.694 5.116,1.694 4.732,0 8.569,-3.836 8.569,-8.569 -10e-4,-2.176 -0.814,-4.162 -2.151,-5.673 z"
           style="opacity:1;fill:#688f2c;fill-rule:nonzero;stroke:none;stroke-width:1;stroke-linecap:butt;stroke-linejoin:miter;stroke-miterlimit:10;stroke-dasharray:none"
           stroke-linecap="round"
           id="path902" />
        <path
           d="m 62.429,55.079 c -3.442,2.75 -7.5,4.261 -10.288,4.743 l -0.354,3.539 c 3.682,-1.565 7.559,-3.932 11.632,-7.099 z"
           style="opacity:1;fill:#694031;fill-rule:nonzero;stroke:none;stroke-width:1;stroke-linecap:butt;stroke-linejoin:miter;stroke-miterlimit:10;stroke-dasharray:none"
           stroke-linecap="round"
           id="path904" />
        <path
           d="m 27.063,53.474 c 5.13,4.099 11.18,6.352 15.335,7.07 l 0.528,5.275 C 37.438,63.486 31.659,59.959 25.588,55.237 Z"
           style="opacity:1;fill:#694031;fill-rule:nonzero;stroke:none;stroke-width:1;stroke-linecap:butt;stroke-linejoin:miter;stroke-miterlimit:10;stroke-dasharray:none"
           stroke-linecap="round"
           id="path906" />
        <path
           d="m 52.991,48.359 c -0.835,7.356 -3.874,13.97 -6.621,17.85 l 3.776,4.633 c 2.527,-6.231 4.335,-13.647 5.426,-22.25 z"
           style="opacity:1;fill:#694031;fill-rule:nonzero;stroke:none;stroke-width:1;stroke-linecap:butt;stroke-linejoin:miter;stroke-miterlimit:10;stroke-dasharray:none"
           stroke-linecap="round"
           id="path908" />
        <path
           d="M 55.901,90 C 49.307,83.414 53.356,71.083 50.77,62.137 48.133,55.264 46.071,52.475 45.88,45.513 H 44.057 C 43.208,50.46 43.742,55.646 45.88,61.108 42.559,56.465 39.059,53.061 35.349,51.12 l -1.881,1.897 c 4.548,3.296 8.895,9.794 8.498,17.247 0,8.93 -1.175,14.565 -6.223,19.735 h 20.158 z"
           style="opacity:1;fill:#784a38;fill-rule:nonzero;stroke:none;stroke-width:1;stroke-linecap:butt;stroke-linejoin:miter;stroke-miterlimit:10;stroke-dasharray:none"
           stroke-linecap="round"
           id="path910" />
        <path
           d="m 78.207,39.96 c 0,-2.186 -1.063,-4.12 -2.695,-5.328 0.531,-0.953 0.835,-2.05 0.835,-3.218 0,-3.662 -2.969,-6.631 -6.631,-6.631 -0.375,0 -0.74,0.039 -1.097,0.098 -0.351,-0.531 -0.775,-1.007 -1.26,-1.417 0.489,-0.925 0.769,-1.977 0.769,-3.096 0,-3.662 -2.969,-6.631 -6.631,-6.631 -0.526,0 -1.035,0.068 -1.526,0.183 -1.216,-1.466 -3.051,-2.4 -5.105,-2.4 -0.375,0 -0.74,0.039 -1.097,0.098 -1.187,-1.796 -3.221,-2.982 -5.534,-2.982 -2.374,0 -4.451,1.252 -5.622,3.127 -0.561,-0.154 -1.149,-0.243 -1.759,-0.243 -2.678,0 -4.98,1.591 -6.027,3.877 -0.421,-0.084 -0.855,-0.129 -1.3,-0.129 -3.446,0 -6.276,2.628 -6.599,5.989 -0.351,-0.058 -0.71,-0.095 -1.077,-0.095 -3.662,0 -6.631,2.969 -6.631,6.631 0,0.189 0.013,0.375 0.028,0.56 -1.382,1.215 -2.258,2.991 -2.258,4.976 0,0.866 0.171,1.691 0.473,2.449 -2.808,0.771 -4.874,3.335 -4.874,6.389 0,1.851 0.76,3.524 1.984,4.727 -0.592,0.993 -0.939,2.149 -0.939,3.388 0,3.662 2.969,6.631 6.631,6.631 0.996,0 1.937,-0.226 2.785,-0.619 1.201,1.698 3.176,2.81 5.414,2.81 2.359,0 4.425,-1.236 5.601,-3.092 3.411,-0.274 6.095,-3.123 6.095,-6.604 0,-0.289 -0.025,-0.571 -0.061,-0.85 0.557,0.152 1.141,0.24 1.746,0.24 1.517,0 2.911,-0.515 4.029,-1.373 0.069,0.1 0.141,0.197 0.216,0.293 -0.006,0.104 -0.016,0.206 -0.016,0.311 0,3.177 2.575,5.752 5.752,5.752 0.846,0 1.647,-0.187 2.371,-0.516 0.393,3.287 3.176,5.839 6.569,5.839 3.425,0 6.243,-2.597 6.594,-5.93 0.254,0.029 0.51,0.049 0.772,0.049 3.662,0 6.631,-2.969 6.631,-6.631 0,-0.267 -0.02,-0.528 -0.051,-0.787 2.078,-1.119 3.495,-3.316 3.495,-5.845 z"
           style="opacity:1;fill:#76a134;fill-rule:nonzero;stroke:none;stroke-width:1;stroke-linecap:butt;stroke-linejoin:miter;stroke-miterlimit:10;stroke-dasharray:none"
           stroke-linecap="round"
           id="path912" />
        <path
           d="m 53.531,38.027 c 0.823,-0.584 1.361,-1.542 1.361,-2.628 0,-0.965 -0.426,-1.828 -1.097,-2.418 0.541,-0.576 0.874,-1.349 0.874,-2.202 0,-1.121 -0.573,-2.108 -1.442,-2.685 0.03,-0.175 0.048,-0.354 0.048,-0.538 0,-1.78 -1.443,-3.223 -3.223,-3.223 -0.046,0 -0.091,0.005 -0.136,0.007 -0.044,-0.147 -0.1,-0.289 -0.164,-0.427 1.008,-0.545 1.694,-1.611 1.694,-2.837 0,-1.299 -0.771,-2.416 -1.878,-2.926 0.305,-0.493 0.485,-1.072 0.485,-1.694 0,-1.78 -1.443,-3.223 -3.223,-3.223 -1.55,0 -2.844,1.095 -3.152,2.553 -0.339,-0.121 -0.702,-0.19 -1.082,-0.19 -1.587,0 -2.904,1.149 -3.171,2.659 -0.462,-0.255 -0.992,-0.402 -1.557,-0.402 -1.78,0 -3.223,1.443 -3.223,3.223 0,0.045 0.005,0.089 0.007,0.133 -0.364,-0.143 -0.76,-0.224 -1.174,-0.224 -1.78,0 -3.223,1.443 -3.223,3.223 0,0.985 0.443,1.866 1.14,2.457 -0.697,0.591 -1.14,1.472 -1.14,2.457 0,0.129 0.01,0.256 0.024,0.381 -0.453,-0.242 -0.969,-0.381 -1.519,-0.381 -1.78,0 -3.223,1.443 -3.223,3.223 -1.78,0 -3.223,1.443 -3.223,3.223 0,0.679 0.211,1.308 0.57,1.828 -1.329,0.398 -2.298,1.628 -2.298,3.087 0,0.469 0.102,0.913 0.282,1.315 -1.053,0.53 -1.776,1.618 -1.776,2.877 0,1.78 1.443,3.223 3.223,3.223 0.549,0 1.066,-0.138 1.519,-0.381 -0.015,0.125 -0.024,0.252 -0.024,0.381 0,1.78 1.443,3.223 3.223,3.223 1.78,0 3.223,-1.443 3.223,-3.223 0,-0.424 -0.084,-0.827 -0.232,-1.198 0.368,0.146 0.768,0.229 1.188,0.229 1.163,0 2.179,-0.618 2.746,-1.541 0.567,0.923 1.583,1.541 2.745,1.541 1.098,0 2.066,-0.55 2.648,-1.388 0.503,0.324 1.1,0.515 1.743,0.515 1.555,0 2.852,-1.101 3.156,-2.565 0.358,0.137 0.745,0.215 1.151,0.215 1.392,0 2.574,-0.884 3.025,-2.119 0.451,1.235 1.633,2.119 3.025,2.119 1.78,0 3.223,-1.443 3.223,-3.223 -0.005,-0.985 -0.447,-1.865 -1.143,-2.456 z"
           style="opacity:1;fill:#84b33d;fill-rule:nonzero;stroke:none;stroke-width:1;stroke-linecap:butt;stroke-linejoin:miter;stroke-miterlimit:10;stroke-dasharray:none"
           stroke-linecap="round"
           id="path914" />
        <path
           d="m 71.035,40.933 c 0,-1.78 -1.443,-3.223 -3.223,-3.223 -1.035,0 -1.954,0.49 -2.544,1.249 -0.219,-0.047 -0.446,-0.073 -0.679,-0.073 -1.78,0 -3.223,1.443 -3.223,3.223 0,0.422 0.083,0.824 0.231,1.193 -0.959,0.559 -1.605,1.595 -1.605,2.784 0,1.78 1.443,3.223 3.223,3.223 1.006,0 1.903,-0.461 2.495,-1.183 0.472,0.271 1.018,0.428 1.601,0.428 1.78,0 3.223,-1.443 3.223,-3.223 0,-0.726 -0.243,-1.394 -0.648,-1.933 0.702,-0.59 1.149,-1.475 1.149,-2.465 z"
           style="opacity:1;fill:#84b33d;fill-rule:nonzero;stroke:none;stroke-width:1;stroke-linecap:butt;stroke-linejoin:miter;stroke-miterlimit:10;stroke-dasharray:none"
           stroke-linecap="round"
           id="path916" />
      </g>
    </g>
    <rect
       style="fill:#d0404a;fill-opacity:1;stroke:none;stroke-width:1;stroke-linecap:round;stroke-linejoin:round;stroke-opacity:0.45098"
       id="rect2299"
       width="33.861607"
       height="41.134541"
       x="11.167422"
       y="-160.57188" />
    <g
       transform="matrix(0.14499393,0,0,-0.14499393,90.494658,-85.741518)"
       id="g2337">
      <g
         style="opacity:1;fill:none;fill-rule:nonzero;stroke:none;stroke-width:0;stroke-linecap:butt;stroke-linejoin:miter;stroke-miterlimit:10;stroke-dasharray:none"
         transform="matrix(3.89,0,0,3.89,-175.05,-175.05)"
         id="g2335">
        <path
           d="m 85.211,47.425 c 0.3,-0.873 0.465,-1.809 0.465,-2.785 0,-1.807 -0.561,-3.482 -1.516,-4.864 1.814,-1.571 2.964,-3.89 2.964,-6.478 0,-4.36 -3.258,-7.957 -7.471,-8.496 0.315,-0.853 0.488,-1.774 0.488,-2.736 0,-4.358 -3.533,-7.892 -7.892,-7.892 0,-4.358 -3.533,-7.892 -7.892,-7.892 -1.805,0 -3.468,0.608 -4.798,1.628 -1.439,-1.929 -3.738,-3.178 -6.33,-3.178 -0.218,0 -0.434,0.011 -0.648,0.029 C 51.37,1.959 48.583,0 45.338,0 41.939,0 39.042,2.149 37.931,5.163 37.325,5.014 36.692,4.933 36.04,4.933 c -3.997,0 -7.297,2.971 -7.818,6.825 -0.246,-0.023 -0.496,-0.036 -0.748,-0.036 -4.288,0 -7.775,3.421 -7.886,7.683 -0.458,-0.083 -0.929,-0.128 -1.411,-0.128 -4.358,0 -7.892,3.533 -7.892,7.892 0,2.127 0.843,4.055 2.21,5.474 -0.202,-0.013 -0.406,-0.022 -0.611,-0.022 -5.106,0 -9.246,4.139 -9.246,9.246 0,4.114 2.688,7.599 6.403,8.798 -0.576,1.206 -0.899,2.555 -0.899,3.981 0,5.106 4.139,9.246 9.246,9.246 1.341,0 2.613,-0.288 3.763,-0.801 1.671,1.655 3.969,2.678 6.506,2.678 4.198,0 7.74,-2.799 8.868,-6.632 1.338,0.986 2.991,1.57 4.781,1.57 1.334,0 2.591,-0.326 3.699,-0.899 C 45.003,59.877 45,59.945 45,60.014 c 0,4.358 3.533,7.892 7.892,7.892 2.822,0 5.297,-1.483 6.692,-3.711 1.524,1.395 3.554,2.247 5.784,2.247 4.008,0 7.372,-2.752 8.309,-6.469 1.428,1.064 3.198,1.694 5.116,1.694 4.732,0 8.569,-3.836 8.569,-8.569 -10e-4,-2.176 -0.814,-4.162 -2.151,-5.673 z"
           style="opacity:1;fill:#688f2c;fill-rule:nonzero;stroke:none;stroke-width:1;stroke-linecap:butt;stroke-linejoin:miter;stroke-miterlimit:10;stroke-dasharray:none"
           stroke-linecap="round"
           id="path2319" />
        <path
           d="m 62.429,55.079 c -3.442,2.75 -7.5,4.261 -10.288,4.743 l -0.354,3.539 c 3.682,-1.565 7.559,-3.932 11.632,-7.099 z"
           style="opacity:1;fill:#694031;fill-rule:nonzero;stroke:none;stroke-width:1;stroke-linecap:butt;stroke-linejoin:miter;stroke-miterlimit:10;stroke-dasharray:none"
           stroke-linecap="round"
           id="path2321" />
        <path
           d="m 27.063,53.474 c 5.13,4.099 11.18,6.352 15.335,7.07 l 0.528,5.275 C 37.438,63.486 31.659,59.959 25.588,55.237 Z"
           style="opacity:1;fill:#694031;fill-rule:nonzero;stroke:none;stroke-width:1;stroke-linecap:butt;stroke-linejoin:miter;stroke-miterlimit:10;stroke-dasharray:none"
           stroke-linecap="round"
           id="path2323" />
        <path
           d="m 52.991,48.359 c -0.835,7.356 -3.874,13.97 -6.621,17.85 l 3.776,4.633 c 2.527,-6.231 4.335,-13.647 5.426,-22.25 z"
           style="opacity:1;fill:#694031;fill-rule:nonzero;stroke:none;stroke-width:1;stroke-linecap:butt;stroke-linejoin:miter;stroke-miterlimit:10;stroke-dasharray:none"
           stroke-linecap="round"
           id="path2325" />
        <path
           d="M 55.901,90 C 49.307,83.414 53.356,71.083 50.77,62.137 48.133,55.264 46.071,52.475 45.88,45.513 H 44.057 C 43.208,50.46 43.742,55.646 45.88,61.108 42.559,56.465 39.059,53.061 35.349,51.12 l -1.881,1.897 c 4.548,3.296 8.895,9.794 8.498,17.247 0,8.93 -1.175,14.565 -6.223,19.735 h 20.158 z"
           style="opacity:1;fill:#784a38;fill-rule:nonzero;stroke:none;stroke-width:1;stroke-linecap:butt;stroke-linejoin:miter;stroke-miterlimit:10;stroke-dasharray:none"
           stroke-linecap="round"
           id="path2327" />
        <path
           d="m 78.207,39.96 c 0,-2.186 -1.063,-4.12 -2.695,-5.328 0.531,-0.953 0.835,-2.05 0.835,-3.218 0,-3.662 -2.969,-6.631 -6.631,-6.631 -0.375,0 -0.74,0.039 -1.097,0.098 -0.351,-0.531 -0.775,-1.007 -1.26,-1.417 0.489,-0.925 0.769,-1.977 0.769,-3.096 0,-3.662 -2.969,-6.631 -6.631,-6.631 -0.526,0 -1.035,0.068 -1.526,0.183 -1.216,-1.466 -3.051,-2.4 -5.105,-2.4 -0.375,0 -0.74,0.039 -1.097,0.098 -1.187,-1.796 -3.221,-2.982 -5.534,-2.982 -2.374,0 -4.451,1.252 -5.622,3.127 -0.561,-0.154 -1.149,-0.243 -1.759,-0.243 -2.678,0 -4.98,1.591 -6.027,3.877 -0.421,-0.084 -0.855,-0.129 -1.3,-0.129 -3.446,0 -6.276,2.628 -6.599,5.989 -0.351,-0.058 -0.71,-0.095 -1.077,-0.095 -3.662,0 -6.631,2.969 -6.631,6.631 0,0.189 0.013,0.375 0.028,0.56 -1.382,1.215 -2.258,2.991 -2.258,4.976 0,0.866 0.171,1.691 0.473,2.449 -2.808,0.771 -4.874,3.335 -4.874,6.389 0,1.851 0.76,3.524 1.984,4.727 -0.592,0.993 -0.939,2.149 -0.939,3.388 0,3.662 2.969,6.631 6.631,6.631 0.996,0 1.937,-0.226 2.785,-0.619 1.201,1.698 3.176,2.81 5.414,2.81 2.359,0 4.425,-1.236 5.601,-3.092 3.411,-0.274 6.095,-3.123 6.095,-6.604 0,-0.289 -0.025,-0.571 -0.061,-0.85 0.557,0.152 1.141,0.24 1.746,0.24 1.517,0 2.911,-0.515 4.029,-1.373 0.069,0.1 0.141,0.197 0.216,0.293 -0.006,0.104 -0.016,0.206 -0.016,0.311 0,3.177 2.575,5.752 5.752,5.752 0.846,0 1.647,-0.187 2.371,-0.516 0.393,3.287 3.176,5.839 6.569,5.839 3.425,0 6.243,-2.597 6.594,-5.93 0.254,0.029 0.51,0.049 0.772,0.049 3.662,0 6.631,-2.969 6.631,-6.631 0,-0.267 -0.02,-0.528 -0.051,-0.787 2.078,-1.119 3.495,-3.316 3.495,-5.845 z"
           style="opacity:1;fill:#76a134;fill-rule:nonzero;stroke:none;stroke-width:1;stroke-linecap:butt;stroke-linejoin:miter;stroke-miterlimit:10;stroke-dasharray:none"
           stroke-linecap="round"
           id="path2329" />
        <path
           d="m 53.531,38.027 c 0.823,-0.584 1.361,-1.542 1.361,-2.628 0,-0.965 -0.426,-1.828 -1.097,-2.418 0.541,-0.576 0.874,-1.349 0.874,-2.202 0,-1.121 -0.573,-2.108 -1.442,-2.685 0.03,-0.175 0.048,-0.354 0.048,-0.538 0,-1.78 -1.443,-3.223 -3.223,-3.223 -0.046,0 -0.091,0.005 -0.136,0.007 -0.044,-0.147 -0.1,-0.289 -0.164,-0.427 1.008,-0.545 1.694,-1.611 1.694,-2.837 0,-1.299 -0.771,-2.416 -1.878,-2.926 0.305,-0.493 0.485,-1.072 0.485,-1.694 0,-1.78 -1.443,-3.223 -3.223,-3.223 -1.55,0 -2.844,1.095 -3.152,2.553 -0.339,-0.121 -0.702,-0.19 -1.082,-0.19 -1.587,0 -2.904,1.149 -3.171,2.659 -0.462,-0.255 -0.992,-0.402 -1.557,-0.402 -1.78,0 -3.223,1.443 -3.223,3.223 0,0.045 0.005,0.089 0.007,0.133 -0.364,-0.143 -0.76,-0.224 -1.174,-0.224 -1.78,0 -3.223,1.443 -3.223,3.223 0,0.985 0.443,1.866 1.14,2.457 -0.697,0.591 -1.14,1.472 -1.14,2.457 0,0.129 0.01,0.256 0.024,0.381 -0.453,-0.242 -0.969,-0.381 -1.519,-0.381 -1.78,0 -3.223,1.443 -3.223,3.223 -1.78,0 -3.223,1.443 -3.223,3.223 0,0.679 0.211,1.308 0.57,1.828 -1.329,0.398 -2.298,1.628 -2.298,3.087 0,0.469 0.102,0.913 0.282,1.315 -1.053,0.53 -1.776,1.618 -1.776,2.877 0,1.78 1.443,3.223 3.223,3.223 0.549,0 1.066,-0.138 1.519,-0.381 -0.015,0.125 -0.024,0.252 -0.024,0.381 0,1.78 1.443,3.223 3.223,3.223 1.78,0 3.223,-1.443 3.223,-3.223 0,-0.424 -0.084,-0.827 -0.232,-1.198 0.368,0.146 0.768,0.229 1.188,0.229 1.163,0 2.179,-0.618 2.746,-1.541 0.567,0.923 1.583,1.541 2.745,1.541 1.098,0 2.066,-0.55 2.648,-1.388 0.503,0.324 1.1,0.515 1.743,0.515 1.555,0 2.852,-1.101 3.156,-2.565 0.358,0.137 0.745,0.215 1.151,0.215 1.392,0 2.574,-0.884 3.025,-2.119 0.451,1.235 1.633,2.119 3.025,2.119 1.78,0 3.223,-1.443 3.223,-3.223 -0.005,-0.985 -0.447,-1.865 -1.143,-2.456 z"
           style="opacity:1;fill:#84b33d;fill-rule:nonzero;stroke:none;stroke-width:1;stroke-linecap:butt;stroke-linejoin:miter;stroke-miterlimit:10;stroke-dasharray:none"
           stroke-linecap="round"
           id="path2331" />
        <path
           d="m 71.035,40.933 c 0,-1.78 -1.443,-3.223 -3.223,-3.223 -1.035,0 -1.954,0.49 -2.544,1.249 -0.219,-0.047 -0.446,-0.073 -0.679,-0.073 -1.78,0 -3.223,1.443 -3.223,3.223 0,0.422 0.083,0.824 0.231,1.193 -0.959,0.559 -1.605,1.595 -1.605,2.784 0,1.78 1.443,3.223 3.223,3.223 1.006,0 1.903,-0.461 2.495,-1.183 0.472,0.271 1.018,0.428 1.601,0.428 1.78,0 3.223,-1.443 3.223,-3.223 0,-0.726 -0.243,-1.394 -0.648,-1.933 0.702,-0.59 1.149,-1.475 1.149,-2.465 z"
           style="opacity:1;fill:#84b33d;fill-rule:nonzero;stroke:none;stroke-width:1;stroke-linecap:butt;stroke-linejoin:miter;stroke-miterlimit:10;stroke-dasharray:none"
           stroke-linecap="round"
           id="path2333" />
      </g>
    </g>
    <rect
       style="fill:#d0404a;fill-opacity:1;stroke:none;stroke-width:1;stroke-linecap:round;stroke-linejoin:round;stroke-opacity:0.45098"
       id="rect2339"
       width="33.861607"
       height="41.134541"
       x="73.563858"
       y="-160.57188" />
    <g
       transform="matrix(0.14499393,0,0,-0.14499393,193.14677,-85.741518)"
       id="g2359">
      <g
         style="opacity:1;fill:none;fill-rule:nonzero;stroke:none;stroke-width:0;stroke-linecap:butt;stroke-linejoin:miter;stroke-miterlimit:10;stroke-dasharray:none"
         transform="matrix(3.89,0,0,3.89,-175.05,-175.05)"
         id="g2357">
        <path
           d="m 85.211,47.425 c 0.3,-0.873 0.465,-1.809 0.465,-2.785 0,-1.807 -0.561,-3.482 -1.516,-4.864 1.814,-1.571 2.964,-3.89 2.964,-6.478 0,-4.36 -3.258,-7.957 -7.471,-8.496 0.315,-0.853 0.488,-1.774 0.488,-2.736 0,-4.358 -3.533,-7.892 -7.892,-7.892 0,-4.358 -3.533,-7.892 -7.892,-7.892 -1.805,0 -3.468,0.608 -4.798,1.628 -1.439,-1.929 -3.738,-3.178 -6.33,-3.178 -0.218,0 -0.434,0.011 -0.648,0.029 C 51.37,1.959 48.583,0 45.338,0 41.939,0 39.042,2.149 37.931,5.163 37.325,5.014 36.692,4.933 36.04,4.933 c -3.997,0 -7.297,2.971 -7.818,6.825 -0.246,-0.023 -0.496,-0.036 -0.748,-0.036 -4.288,0 -7.775,3.421 -7.886,7.683 -0.458,-0.083 -0.929,-0.128 -1.411,-0.128 -4.358,0 -7.892,3.533 -7.892,7.892 0,2.127 0.843,4.055 2.21,5.474 -0.202,-0.013 -0.406,-0.022 -0.611,-0.022 -5.106,0 -9.246,4.139 -9.246,9.246 0,4.114 2.688,7.599 6.403,8.798 -0.576,1.206 -0.899,2.555 -0.899,3.981 0,5.106 4.139,9.246 9.246,9.246 1.341,0 2.613,-0.288 3.763,-0.801 1.671,1.655 3.969,2.678 6.506,2.678 4.198,0 7.74,-2.799 8.868,-6.632 1.338,0.986 2.991,1.57 4.781,1.57 1.334,0 2.591,-0.326 3.699,-0.899 C 45.003,59.877 45,59.945 45,60.014 c 0,4.358 3.533,7.892 7.892,7.892 2.822,0 5.297,-1.483 6.692,-3.711 1.524,1.395 3.554,2.247 5.784,2.247 4.008,0 7.372,-2.752 8.309,-6.469 1.428,1.064 3.198,1.694 5.116,1.694 4.732,0 8.569,-3.836 8.569,-8.569 -10e-4,-2.176 -0.814,-4.162 -2.151,-5.673 z"
           style="opacity:1;fill:#688f2c;fill-rule:nonzero;stroke:none;stroke-width:1;stroke-linecap:butt;stroke-linejoin:miter;stroke-miterlimit:10;stroke-dasharray:none"
           stroke-linecap="round"
           id="path2341" />
        <path
           d="m 62.429,55.079 c -3.442,2.75 -7.5,4.261 -10.288,4.743 l -0.354,3.539 c 3.682,-1.565 7.559,-3.932 11.632,-7.099 z"
           style="opacity:1;fill:#694031;fill-rule:nonzero;stroke:none;stroke-width:1;stroke-linecap:butt;stroke-linejoin:miter;stroke-miterlimit:10;stroke-dasharray:none"
           stroke-linecap="round"
           id="path2343" />
        <path
           d="m 27.063,53.474 c 5.13,4.099 11.18,6.352 15.335,7.07 l 0.528,5.275 C 37.438,63.486 31.659,59.959 25.588,55.237 Z"
           style="opacity:1;fill:#694031;fill-rule:nonzero;stroke:none;stroke-width:1;stroke-linecap:butt;stroke-linejoin:miter;stroke-miterlimit:10;stroke-dasharray:none"
           stroke-linecap="round"
           id="path2345" />
        <path
           d="m 52.991,48.359 c -0.835,7.356 -3.874,13.97 -6.621,17.85 l 3.776,4.633 c 2.527,-6.231 4.335,-13.647 5.426,-22.25 z"
           style="opacity:1;fill:#694031;fill-rule:nonzero;stroke:none;stroke-width:1;stroke-linecap:butt;stroke-linejoin:miter;stroke-miterlimit:10;stroke-dasharray:none"
           stroke-linecap="round"
           id="path2347" />
        <path
           d="M 55.901,90 C 49.307,83.414 53.356,71.083 50.77,62.137 48.133,55.264 46.071,52.475 45.88,45.513 H 44.057 C 43.208,50.46 43.742,55.646 45.88,61.108 42.559,56.465 39.059,53.061 35.349,51.12 l -1.881,1.897 c 4.548,3.296 8.895,9.794 8.498,17.247 0,8.93 -1.175,14.565 -6.223,19.735 h 20.158 z"
           style="opacity:1;fill:#784a38;fill-rule:nonzero;stroke:none;stroke-width:1;stroke-linecap:butt;stroke-linejoin:miter;stroke-miterlimit:10;stroke-dasharray:none"
           stroke-linecap="round"
           id="path2349" />
        <path
           d="m 78.207,39.96 c 0,-2.186 -1.063,-4.12 -2.695,-5.328 0.531,-0.953 0.835,-2.05 0.835,-3.218 0,-3.662 -2.969,-6.631 -6.631,-6.631 -0.375,0 -0.74,0.039 -1.097,0.098 -0.351,-0.531 -0.775,-1.007 -1.26,-1.417 0.489,-0.925 0.769,-1.977 0.769,-3.096 0,-3.662 -2.969,-6.631 -6.631,-6.631 -0.526,0 -1.035,0.068 -1.526,0.183 -1.216,-1.466 -3.051,-2.4 -5.105,-2.4 -0.375,0 -0.74,0.039 -1.097,0.098 -1.187,-1.796 -3.221,-2.982 -5.534,-2.982 -2.374,0 -4.451,1.252 -5.622,3.127 -0.561,-0.154 -1.149,-0.243 -1.759,-0.243 -2.678,0 -4.98,1.591 -6.027,3.877 -0.421,-0.084 -0.855,-0.129 -1.3,-0.129 -3.446,0 -6.276,2.628 -6.599,5.989 -0.351,-0.058 -0.71,-0.095 -1.077,-0.095 -3.662,0 -6.631,2.969 -6.631,6.631 0,0.189 0.013,0.375 0.028,0.56 -1.382,1.215 -2.258,2.991 -2.258,4.976 0,0.866 0.171,1.691 0.473,2.449 -2.808,0.771 -4.874,3.335 -4.874,6.389 0,1.851 0.76,3.524 1.984,4.727 -0.592,0.993 -0.939,2.149 -0.939,3.388 0,3.662 2.969,6.631 6.631,6.631 0.996,0 1.937,-0.226 2.785,-0.619 1.201,1.698 3.176,2.81 5.414,2.81 2.359,0 4.425,-1.236 5.601,-3.092 3.411,-0.274 6.095,-3.123 6.095,-6.604 0,-0.289 -0.025,-0.571 -0.061,-0.85 0.557,0.152 1.141,0.24 1.746,0.24 1.517,0 2.911,-0.515 4.029,-1.373 0.069,0.1 0.141,0.197 0.216,0.293 -0.006,0.104 -0.016,0.206 -0.016,0.311 0,3.177 2.575,5.752 5.752,5.752 0.846,0 1.647,-0.187 2.371,-0.516 0.393,3.287 3.176,5.839 6.569,5.839 3.425,0 6.243,-2.597 6.594,-5.93 0.254,0.029 0.51,0.049 0.772,0.049 3.662,0 6.631,-2.969 6.631,-6.631 0,-0.267 -0.02,-0.528 -0.051,-0.787 2.078,-1.119 3.495,-3.316 3.495,-5.845 z"
           style="opacity:1;fill:#76a134;fill-rule:nonzero;stroke:none;stroke-width:1;stroke-linecap:butt;stroke-linejoin:miter;stroke-miterlimit:10;stroke-dasharray:none"
           stroke-linecap="round"
           id="path2351" />
        <path
           d="m 53.531,38.027 c 0.823,-0.584 1.361,-1.542 1.361,-2.628 0,-0.965 -0.426,-1.828 -1.097,-2.418 0.541,-0.576 0.874,-1.349 0.874,-2.202 0,-1.121 -0.573,-2.108 -1.442,-2.685 0.03,-0.175 0.048,-0.354 0.048,-0.538 0,-1.78 -1.443,-3.223 -3.223,-3.223 -0.046,0 -0.091,0.005 -0.136,0.007 -0.044,-0.147 -0.1,-0.289 -0.164,-0.427 1.008,-0.545 1.694,-1.611 1.694,-2.837 0,-1.299 -0.771,-2.416 -1.878,-2.926 0.305,-0.493 0.485,-1.072 0.485,-1.694 0,-1.78 -1.443,-3.223 -3.223,-3.223 -1.55,0 -2.844,1.095 -3.152,2.553 -0.339,-0.121 -0.702,-0.19 -1.082,-0.19 -1.587,0 -2.904,1.149 -3.171,2.659 -0.462,-0.255 -0.992,-0.402 -1.557,-0.402 -1.78,0 -3.223,1.443 -3.223,3.223 0,0.045 0.005,0.089 0.007,0.133 -0.364,-0.143 -0.76,-0.224 -1.174,-0.224 -1.78,0 -3.223,1.443 -3.223,3.223 0,0.985 0.443,1.866 1.14,2.457 -0.697,0.591 -1.14,1.472 -1.14,2.457 0,0.129 0.01,0.256 0.024,0.381 -0.453,-0.242 -0.969,-0.381 -1.519,-0.381 -1.78,0 -3.223,1.443 -3.223,3.223 -1.78,0 -3.223,1.443 -3.223,3.223 0,0.679 0.211,1.308 0.57,1.828 -1.329,0.398 -2.298,1.628 -2.298,3.087 0,0.469 0.102,0.913 0.282,1.315 -1.053,0.53 -1.776,1.618 -1.776,2.877 0,1.78 1.443,3.223 3.223,3.223 0.549,0 1.066,-0.138 1.519,-0.381 -0.015,0.125 -0.024,0.252 -0.024,0.381 0,1.78 1.443,3.223 3.223,3.223 1.78,0 3.223,-1.443 3.223,-3.223 0,-0.424 -0.084,-0.827 -0.232,-1.198 0.368,0.146 0.768,0.229 1.188,0.229 1.163,0 2.179,-0.618 2.746,-1.541 0.567,0.923 1.583,1.541 2.745,1.541 1.098,0 2.066,-0.55 2.648,-1.388 0.503,0.324 1.1,0.515 1.743,0.515 1.555,0 2.852,-1.101 3.156,-2.565 0.358,0.137 0.745,0.215 1.151,0.215 1.392,0 2.574,-0.884 3.025,-2.119 0.451,1.235 1.633,2.119 3.025,2.119 1.78,0 3.223,-1.443 3.223,-3.223 -0.005,-0.985 -0.447,-1.865 -1.143,-2.456 z"
           style="opacity:1;fill:#84b33d;fill-rule:nonzero;stroke:none;stroke-width:1;stroke-linecap:butt;stroke-linejoin:miter;stroke-miterlimit:10;stroke-dasharray:none"
           stroke-linecap="round"
           id="path2353" />
        <path
           d="m 71.035,40.933 c 0,-1.78 -1.443,-3.223 -3.223,-3.223 -1.035,0 -1.954,0.49 -2.544,1.249 -0.219,-0.047 -0.446,-0.073 -0.679,-0.073 -1.78,0 -3.223,1.443 -3.223,3.223 0,0.422 0.083,0.824 0.231,1.193 -0.959,0.559 -1.605,1.595 -1.605,2.784 0,1.78 1.443,3.223 3.223,3.223 1.006,0 1.903,-0.461 2.495,-1.183 0.472,0.271 1.018,0.428 1.601,0.428 1.78,0 3.223,-1.443 3.223,-3.223 0,-0.726 -0.243,-1.394 -0.648,-1.933 0.702,-0.59 1.149,-1.475 1.149,-2.465 z"
           style="opacity:1;fill:#84b33d;fill-rule:nonzero;stroke:none;stroke-width:1;stroke-linecap:butt;stroke-linejoin:miter;stroke-miterlimit:10;stroke-dasharray:none"
           stroke-linecap="round"
           id="path2355" />
      </g>
    </g>
    <rect
       style="fill:#d0404a;fill-opacity:1;stroke:none;stroke-width:1;stroke-linecap:round;stroke-linejoin:round;stroke-opacity:0.45098"
       id="rect2361"
       width="33.861607"
       height="41.134541"
       x="176.21596"
       y="-160.57188" />
    <g
       transform="matrix(2.5165421,0,0,2.5165421,128.99686,-142.56401)"
       ns0:version="1.4.0"
       ns0:texconverter="pdflatex"
       ns0:pdfconverter="inkscape"
       ns0:text="$\\cdots$"
       ns0:preamble="/home/liz/Dropbox/Math/SVGs/Liz-Inkscape.sty"
       ns0:scale="0.75"
       ns0:alignment="middle center"
       ns0:jacobian_sqrt="0.264583"
       id="g2453">
      <defs
         id="id-786cd490-9a14-45df-a4bd-93016e5e1272">
        <g
           id="id-f45abdf4-9ddc-47f3-bd9e-bccd5e1763c7">
          <symbol
             overflow="visible"
             id="id-4dd54934-7215-44ae-8d5c-3ca04410a8f0">
            <path
               style="stroke:none;stroke-width:0"
               d=""
               id="id-bc60dbf8-7a33-4af2-bf57-d781e6f0a1eb" />
          </symbol>
          <symbol
             overflow="visible"
             id="id-65a28e15-cbb2-41f5-a416-b00fcce7b7ad">
            <path
               style="stroke:none;stroke-width:0"
               d="m 1.90625,-2.5 c 0,-0.28125 -0.234375,-0.515625 -0.515625,-0.515625 -0.296875,0 -0.53125,0.234375 -0.53125,0.515625 0,0.296875 0.234375,0.53125 0.53125,0.53125 0.28125,0 0.515625,-0.234375 0.515625,-0.53125 z m 0,0"
               id="id-1a64dab7-d488-4bac-9628-51167b7dc703" />
          </symbol>
        </g>
      </defs>
      <g
         id="id-3cf2bc3e-a5f4-423e-9e57-d0e48b97274d"
         transform="translate(-149.571,-131.749)">
        <g
           style="fill:#000000;fill-opacity:1"
           id="id-304e612e-aacc-476b-9748-f6356ca0731c">
          <g
             id="id-b51eba85-2042-4ba6-b9ba-b11ab1f4f947"
             transform="translate(148.712,134.765)">
            <path
               style="stroke:none;stroke-width:0"
               d="m 1.90625,-2.5 c 0,-0.28125 -0.234375,-0.515625 -0.515625,-0.515625 -0.296875,0 -0.53125,0.234375 -0.53125,0.515625 0,0.296875 0.234375,0.53125 0.53125,0.53125 0.28125,0 0.515625,-0.234375 0.515625,-0.53125 z m 0,0"
               id="id-a998e94e-c1aa-4145-a4ac-05f960b795ef" />
          </g>
        </g>
        <g
           style="fill:#000000;fill-opacity:1"
           id="id-5a00556e-a818-48e5-a606-f400ce43502b">
          <g
             id="id-a864c42d-28c1-4c9d-b444-63f2365d5392"
             transform="translate(153.143,134.765)">
            <path
               style="stroke:none;stroke-width:0"
               d="m 1.90625,-2.5 c 0,-0.28125 -0.234375,-0.515625 -0.515625,-0.515625 -0.296875,0 -0.53125,0.234375 -0.53125,0.515625 0,0.296875 0.234375,0.53125 0.53125,0.53125 0.28125,0 0.515625,-0.234375 0.515625,-0.53125 z m 0,0"
               id="id-d630d6d5-98a2-4275-8739-ea6e151830df" />
          </g>
        </g>
        <g
           style="fill:#000000;fill-opacity:1"
           id="id-0c7a2408-1ec0-4b44-aee1-165187596129">
          <g
             id="id-e2ab7d71-63e7-4591-b121-45befd7929be"
             transform="translate(157.565,134.765)">
            <path
               style="stroke:none;stroke-width:0"
               d="m 1.90625,-2.5 c 0,-0.28125 -0.234375,-0.515625 -0.515625,-0.515625 -0.296875,0 -0.53125,0.234375 -0.53125,0.515625 0,0.296875 0.234375,0.53125 0.53125,0.53125 0.28125,0 0.515625,-0.234375 0.515625,-0.53125 z m 0,0"
               id="id-4be0123e-584d-4716-bcc4-fa7917a87f0d" />
          </g>
        </g>
      </g>
    </g>
    <g
       transform="matrix(2.5165421,0,0,2.5165421,129.72922,-87.059714)"
       ns0:version="1.4.0"
       ns0:texconverter="pdflatex"
       ns0:pdfconverter="inkscape"
       ns0:text="$\\cdots$"
       ns0:preamble="/home/liz/Dropbox/Math/SVGs/Liz-Inkscape.sty"
       ns0:scale="0.75"
       ns0:alignment="middle center"
       ns0:jacobian_sqrt="0.264583"
       id="g2524">
      <defs
         id="defs2502">
        <g
           id="g2500">
          <symbol
             overflow="visible"
             id="symbol2494">
            <path
               style="stroke:none;stroke-width:0"
               d=""
               id="path2492" />
          </symbol>
          <symbol
             overflow="visible"
             id="symbol2498">
            <path
               style="stroke:none;stroke-width:0"
               d="m 1.90625,-2.5 c 0,-0.28125 -0.234375,-0.515625 -0.515625,-0.515625 -0.296875,0 -0.53125,0.234375 -0.53125,0.515625 0,0.296875 0.234375,0.53125 0.53125,0.53125 0.28125,0 0.515625,-0.234375 0.515625,-0.53125 z m 0,0"
               id="path2496" />
          </symbol>
        </g>
      </defs>
      <g
         id="g2522"
         transform="translate(-149.571,-131.749)">
        <g
           style="fill:#000000;fill-opacity:1"
           id="g2508">
          <g
             id="g2506"
             transform="translate(148.712,134.765)">
            <path
               style="stroke:none;stroke-width:0"
               d="m 1.90625,-2.5 c 0,-0.28125 -0.234375,-0.515625 -0.515625,-0.515625 -0.296875,0 -0.53125,0.234375 -0.53125,0.515625 0,0.296875 0.234375,0.53125 0.53125,0.53125 0.28125,0 0.515625,-0.234375 0.515625,-0.53125 z m 0,0"
               id="path2504" />
          </g>
        </g>
        <g
           style="fill:#000000;fill-opacity:1"
           id="g2514">
          <g
             id="g2512"
             transform="translate(153.143,134.765)">
            <path
               style="stroke:none;stroke-width:0"
               d="m 1.90625,-2.5 c 0,-0.28125 -0.234375,-0.515625 -0.515625,-0.515625 -0.296875,0 -0.53125,0.234375 -0.53125,0.515625 0,0.296875 0.234375,0.53125 0.53125,0.53125 0.28125,0 0.515625,-0.234375 0.515625,-0.53125 z m 0,0"
               id="path2510" />
          </g>
        </g>
        <g
           style="fill:#000000;fill-opacity:1"
           id="g2520">
          <g
             id="g2518"
             transform="translate(157.565,134.765)">
            <path
               style="stroke:none;stroke-width:0"
               d="m 1.90625,-2.5 c 0,-0.28125 -0.234375,-0.515625 -0.515625,-0.515625 -0.296875,0 -0.53125,0.234375 -0.53125,0.515625 0,0.296875 0.234375,0.53125 0.53125,0.53125 0.28125,0 0.515625,-0.234375 0.515625,-0.53125 z m 0,0"
               id="path2516" />
          </g>
        </g>
      </g>
    </g>
    <g
       id="g1078">
      <g
         transform="matrix(0.14499393,0,0,-0.14499393,5.6874477,136.17803)"
         id="g907">
        <g
           style="opacity:1;fill:none;fill-rule:nonzero;stroke:none;stroke-width:0;stroke-linecap:butt;stroke-linejoin:miter;stroke-miterlimit:10;stroke-dasharray:none"
           transform="matrix(3.89,0,0,3.89,-175.05,-175.05)"
           id="g905">
          <path
             d="m 85.211,47.425 c 0.3,-0.873 0.465,-1.809 0.465,-2.785 0,-1.807 -0.561,-3.482 -1.516,-4.864 1.814,-1.571 2.964,-3.89 2.964,-6.478 0,-4.36 -3.258,-7.957 -7.471,-8.496 0.315,-0.853 0.488,-1.774 0.488,-2.736 0,-4.358 -3.533,-7.892 -7.892,-7.892 0,-4.358 -3.533,-7.892 -7.892,-7.892 -1.805,0 -3.468,0.608 -4.798,1.628 -1.439,-1.929 -3.738,-3.178 -6.33,-3.178 -0.218,0 -0.434,0.011 -0.648,0.029 C 51.37,1.959 48.583,0 45.338,0 41.939,0 39.042,2.149 37.931,5.163 37.325,5.014 36.692,4.933 36.04,4.933 c -3.997,0 -7.297,2.971 -7.818,6.825 -0.246,-0.023 -0.496,-0.036 -0.748,-0.036 -4.288,0 -7.775,3.421 -7.886,7.683 -0.458,-0.083 -0.929,-0.128 -1.411,-0.128 -4.358,0 -7.892,3.533 -7.892,7.892 0,2.127 0.843,4.055 2.21,5.474 -0.202,-0.013 -0.406,-0.022 -0.611,-0.022 -5.106,0 -9.246,4.139 -9.246,9.246 0,4.114 2.688,7.599 6.403,8.798 -0.576,1.206 -0.899,2.555 -0.899,3.981 0,5.106 4.139,9.246 9.246,9.246 1.341,0 2.613,-0.288 3.763,-0.801 1.671,1.655 3.969,2.678 6.506,2.678 4.198,0 7.74,-2.799 8.868,-6.632 1.338,0.986 2.991,1.57 4.781,1.57 1.334,0 2.591,-0.326 3.699,-0.899 C 45.003,59.877 45,59.945 45,60.014 c 0,4.358 3.533,7.892 7.892,7.892 2.822,0 5.297,-1.483 6.692,-3.711 1.524,1.395 3.554,2.247 5.784,2.247 4.008,0 7.372,-2.752 8.309,-6.469 1.428,1.064 3.198,1.694 5.116,1.694 4.732,0 8.569,-3.836 8.569,-8.569 -10e-4,-2.176 -0.814,-4.162 -2.151,-5.673 z"
             style="opacity:1;fill:#688f2c;fill-rule:nonzero;stroke:none;stroke-width:1;stroke-linecap:butt;stroke-linejoin:miter;stroke-miterlimit:10;stroke-dasharray:none"
             stroke-linecap="round"
             id="path889" />
          <path
             d="m 62.429,55.079 c -3.442,2.75 -7.5,4.261 -10.288,4.743 l -0.354,3.539 c 3.682,-1.565 7.559,-3.932 11.632,-7.099 z"
             style="opacity:1;fill:#694031;fill-rule:nonzero;stroke:none;stroke-width:1;stroke-linecap:butt;stroke-linejoin:miter;stroke-miterlimit:10;stroke-dasharray:none"
             stroke-linecap="round"
             id="path891" />
          <path
             d="m 27.063,53.474 c 5.13,4.099 11.18,6.352 15.335,7.07 l 0.528,5.275 C 37.438,63.486 31.659,59.959 25.588,55.237 Z"
             style="opacity:1;fill:#694031;fill-rule:nonzero;stroke:none;stroke-width:1;stroke-linecap:butt;stroke-linejoin:miter;stroke-miterlimit:10;stroke-dasharray:none"
             stroke-linecap="round"
             id="path893" />
          <path
             d="m 52.991,48.359 c -0.835,7.356 -3.874,13.97 -6.621,17.85 l 3.776,4.633 c 2.527,-6.231 4.335,-13.647 5.426,-22.25 z"
             style="opacity:1;fill:#694031;fill-rule:nonzero;stroke:none;stroke-width:1;stroke-linecap:butt;stroke-linejoin:miter;stroke-miterlimit:10;stroke-dasharray:none"
             stroke-linecap="round"
             id="path895" />
          <path
             d="M 55.901,90 C 49.307,83.414 53.356,71.083 50.77,62.137 48.133,55.264 46.071,52.475 45.88,45.513 H 44.057 C 43.208,50.46 43.742,55.646 45.88,61.108 42.559,56.465 39.059,53.061 35.349,51.12 l -1.881,1.897 c 4.548,3.296 8.895,9.794 8.498,17.247 0,8.93 -1.175,14.565 -6.223,19.735 h 20.158 z"
             style="opacity:1;fill:#784a38;fill-rule:nonzero;stroke:none;stroke-width:1;stroke-linecap:butt;stroke-linejoin:miter;stroke-miterlimit:10;stroke-dasharray:none"
             stroke-linecap="round"
             id="path897" />
          <path
             d="m 78.207,39.96 c 0,-2.186 -1.063,-4.12 -2.695,-5.328 0.531,-0.953 0.835,-2.05 0.835,-3.218 0,-3.662 -2.969,-6.631 -6.631,-6.631 -0.375,0 -0.74,0.039 -1.097,0.098 -0.351,-0.531 -0.775,-1.007 -1.26,-1.417 0.489,-0.925 0.769,-1.977 0.769,-3.096 0,-3.662 -2.969,-6.631 -6.631,-6.631 -0.526,0 -1.035,0.068 -1.526,0.183 -1.216,-1.466 -3.051,-2.4 -5.105,-2.4 -0.375,0 -0.74,0.039 -1.097,0.098 -1.187,-1.796 -3.221,-2.982 -5.534,-2.982 -2.374,0 -4.451,1.252 -5.622,3.127 -0.561,-0.154 -1.149,-0.243 -1.759,-0.243 -2.678,0 -4.98,1.591 -6.027,3.877 -0.421,-0.084 -0.855,-0.129 -1.3,-0.129 -3.446,0 -6.276,2.628 -6.599,5.989 -0.351,-0.058 -0.71,-0.095 -1.077,-0.095 -3.662,0 -6.631,2.969 -6.631,6.631 0,0.189 0.013,0.375 0.028,0.56 -1.382,1.215 -2.258,2.991 -2.258,4.976 0,0.866 0.171,1.691 0.473,2.449 -2.808,0.771 -4.874,3.335 -4.874,6.389 0,1.851 0.76,3.524 1.984,4.727 -0.592,0.993 -0.939,2.149 -0.939,3.388 0,3.662 2.969,6.631 6.631,6.631 0.996,0 1.937,-0.226 2.785,-0.619 1.201,1.698 3.176,2.81 5.414,2.81 2.359,0 4.425,-1.236 5.601,-3.092 3.411,-0.274 6.095,-3.123 6.095,-6.604 0,-0.289 -0.025,-0.571 -0.061,-0.85 0.557,0.152 1.141,0.24 1.746,0.24 1.517,0 2.911,-0.515 4.029,-1.373 0.069,0.1 0.141,0.197 0.216,0.293 -0.006,0.104 -0.016,0.206 -0.016,0.311 0,3.177 2.575,5.752 5.752,5.752 0.846,0 1.647,-0.187 2.371,-0.516 0.393,3.287 3.176,5.839 6.569,5.839 3.425,0 6.243,-2.597 6.594,-5.93 0.254,0.029 0.51,0.049 0.772,0.049 3.662,0 6.631,-2.969 6.631,-6.631 0,-0.267 -0.02,-0.528 -0.051,-0.787 2.078,-1.119 3.495,-3.316 3.495,-5.845 z"
             style="opacity:1;fill:#76a134;fill-rule:nonzero;stroke:none;stroke-width:1;stroke-linecap:butt;stroke-linejoin:miter;stroke-miterlimit:10;stroke-dasharray:none"
             stroke-linecap="round"
             id="path899" />
          <path
             d="m 53.531,38.027 c 0.823,-0.584 1.361,-1.542 1.361,-2.628 0,-0.965 -0.426,-1.828 -1.097,-2.418 0.541,-0.576 0.874,-1.349 0.874,-2.202 0,-1.121 -0.573,-2.108 -1.442,-2.685 0.03,-0.175 0.048,-0.354 0.048,-0.538 0,-1.78 -1.443,-3.223 -3.223,-3.223 -0.046,0 -0.091,0.005 -0.136,0.007 -0.044,-0.147 -0.1,-0.289 -0.164,-0.427 1.008,-0.545 1.694,-1.611 1.694,-2.837 0,-1.299 -0.771,-2.416 -1.878,-2.926 0.305,-0.493 0.485,-1.072 0.485,-1.694 0,-1.78 -1.443,-3.223 -3.223,-3.223 -1.55,0 -2.844,1.095 -3.152,2.553 -0.339,-0.121 -0.702,-0.19 -1.082,-0.19 -1.587,0 -2.904,1.149 -3.171,2.659 -0.462,-0.255 -0.992,-0.402 -1.557,-0.402 -1.78,0 -3.223,1.443 -3.223,3.223 0,0.045 0.005,0.089 0.007,0.133 -0.364,-0.143 -0.76,-0.224 -1.174,-0.224 -1.78,0 -3.223,1.443 -3.223,3.223 0,0.985 0.443,1.866 1.14,2.457 -0.697,0.591 -1.14,1.472 -1.14,2.457 0,0.129 0.01,0.256 0.024,0.381 -0.453,-0.242 -0.969,-0.381 -1.519,-0.381 -1.78,0 -3.223,1.443 -3.223,3.223 -1.78,0 -3.223,1.443 -3.223,3.223 0,0.679 0.211,1.308 0.57,1.828 -1.329,0.398 -2.298,1.628 -2.298,3.087 0,0.469 0.102,0.913 0.282,1.315 -1.053,0.53 -1.776,1.618 -1.776,2.877 0,1.78 1.443,3.223 3.223,3.223 0.549,0 1.066,-0.138 1.519,-0.381 -0.015,0.125 -0.024,0.252 -0.024,0.381 0,1.78 1.443,3.223 3.223,3.223 1.78,0 3.223,-1.443 3.223,-3.223 0,-0.424 -0.084,-0.827 -0.232,-1.198 0.368,0.146 0.768,0.229 1.188,0.229 1.163,0 2.179,-0.618 2.746,-1.541 0.567,0.923 1.583,1.541 2.745,1.541 1.098,0 2.066,-0.55 2.648,-1.388 0.503,0.324 1.1,0.515 1.743,0.515 1.555,0 2.852,-1.101 3.156,-2.565 0.358,0.137 0.745,0.215 1.151,0.215 1.392,0 2.574,-0.884 3.025,-2.119 0.451,1.235 1.633,2.119 3.025,2.119 1.78,0 3.223,-1.443 3.223,-3.223 -0.005,-0.985 -0.447,-1.865 -1.143,-2.456 z"
             style="opacity:1;fill:#84b33d;fill-rule:nonzero;stroke:none;stroke-width:1;stroke-linecap:butt;stroke-linejoin:miter;stroke-miterlimit:10;stroke-dasharray:none"
             stroke-linecap="round"
             id="path901" />
          <path
             d="m 71.035,40.933 c 0,-1.78 -1.443,-3.223 -3.223,-3.223 -1.035,0 -1.954,0.49 -2.544,1.249 -0.219,-0.047 -0.446,-0.073 -0.679,-0.073 -1.78,0 -3.223,1.443 -3.223,3.223 0,0.422 0.083,0.824 0.231,1.193 -0.959,0.559 -1.605,1.595 -1.605,2.784 0,1.78 1.443,3.223 3.223,3.223 1.006,0 1.903,-0.461 2.495,-1.183 0.472,0.271 1.018,0.428 1.601,0.428 1.78,0 3.223,-1.443 3.223,-3.223 0,-0.726 -0.243,-1.394 -0.648,-1.933 0.702,-0.59 1.149,-1.475 1.149,-2.465 z"
             style="opacity:1;fill:#84b33d;fill-rule:nonzero;stroke:none;stroke-width:1;stroke-linecap:butt;stroke-linejoin:miter;stroke-miterlimit:10;stroke-dasharray:none"
             stroke-linecap="round"
             id="path903" />
        </g>
      </g>
      <rect
         style="fill:#d0404a;fill-opacity:1;stroke:none;stroke-width:1;stroke-linecap:round;stroke-linejoin:round;stroke-opacity:0.45098"
         id="rect909"
         width="33.861607"
         height="41.134541"
         x="-11.243355"
         y="61.34766" />
    </g>
    <g
       id="g1091"
       transform="translate(-1.2089029)">
      <g
         transform="matrix(0.14499393,0,0,-0.14499393,68.083881,136.17803)"
         id="g929">
        <g
           style="opacity:1;fill:none;fill-rule:nonzero;stroke:none;stroke-width:0;stroke-linecap:butt;stroke-linejoin:miter;stroke-miterlimit:10;stroke-dasharray:none"
           transform="matrix(3.89,0,0,3.89,-175.05,-175.05)"
           id="g927">
          <path
             d="m 85.211,47.425 c 0.3,-0.873 0.465,-1.809 0.465,-2.785 0,-1.807 -0.561,-3.482 -1.516,-4.864 1.814,-1.571 2.964,-3.89 2.964,-6.478 0,-4.36 -3.258,-7.957 -7.471,-8.496 0.315,-0.853 0.488,-1.774 0.488,-2.736 0,-4.358 -3.533,-7.892 -7.892,-7.892 0,-4.358 -3.533,-7.892 -7.892,-7.892 -1.805,0 -3.468,0.608 -4.798,1.628 -1.439,-1.929 -3.738,-3.178 -6.33,-3.178 -0.218,0 -0.434,0.011 -0.648,0.029 C 51.37,1.959 48.583,0 45.338,0 41.939,0 39.042,2.149 37.931,5.163 37.325,5.014 36.692,4.933 36.04,4.933 c -3.997,0 -7.297,2.971 -7.818,6.825 -0.246,-0.023 -0.496,-0.036 -0.748,-0.036 -4.288,0 -7.775,3.421 -7.886,7.683 -0.458,-0.083 -0.929,-0.128 -1.411,-0.128 -4.358,0 -7.892,3.533 -7.892,7.892 0,2.127 0.843,4.055 2.21,5.474 -0.202,-0.013 -0.406,-0.022 -0.611,-0.022 -5.106,0 -9.246,4.139 -9.246,9.246 0,4.114 2.688,7.599 6.403,8.798 -0.576,1.206 -0.899,2.555 -0.899,3.981 0,5.106 4.139,9.246 9.246,9.246 1.341,0 2.613,-0.288 3.763,-0.801 1.671,1.655 3.969,2.678 6.506,2.678 4.198,0 7.74,-2.799 8.868,-6.632 1.338,0.986 2.991,1.57 4.781,1.57 1.334,0 2.591,-0.326 3.699,-0.899 C 45.003,59.877 45,59.945 45,60.014 c 0,4.358 3.533,7.892 7.892,7.892 2.822,0 5.297,-1.483 6.692,-3.711 1.524,1.395 3.554,2.247 5.784,2.247 4.008,0 7.372,-2.752 8.309,-6.469 1.428,1.064 3.198,1.694 5.116,1.694 4.732,0 8.569,-3.836 8.569,-8.569 -10e-4,-2.176 -0.814,-4.162 -2.151,-5.673 z"
             style="opacity:1;fill:#688f2c;fill-rule:nonzero;stroke:none;stroke-width:1;stroke-linecap:butt;stroke-linejoin:miter;stroke-miterlimit:10;stroke-dasharray:none"
             stroke-linecap="round"
             id="path911" />
          <path
             d="m 62.429,55.079 c -3.442,2.75 -7.5,4.261 -10.288,4.743 l -0.354,3.539 c 3.682,-1.565 7.559,-3.932 11.632,-7.099 z"
             style="opacity:1;fill:#694031;fill-rule:nonzero;stroke:none;stroke-width:1;stroke-linecap:butt;stroke-linejoin:miter;stroke-miterlimit:10;stroke-dasharray:none"
             stroke-linecap="round"
             id="path913" />
          <path
             d="m 27.063,53.474 c 5.13,4.099 11.18,6.352 15.335,7.07 l 0.528,5.275 C 37.438,63.486 31.659,59.959 25.588,55.237 Z"
             style="opacity:1;fill:#694031;fill-rule:nonzero;stroke:none;stroke-width:1;stroke-linecap:butt;stroke-linejoin:miter;stroke-miterlimit:10;stroke-dasharray:none"
             stroke-linecap="round"
             id="path915" />
          <path
             d="m 52.991,48.359 c -0.835,7.356 -3.874,13.97 -6.621,17.85 l 3.776,4.633 c 2.527,-6.231 4.335,-13.647 5.426,-22.25 z"
             style="opacity:1;fill:#694031;fill-rule:nonzero;stroke:none;stroke-width:1;stroke-linecap:butt;stroke-linejoin:miter;stroke-miterlimit:10;stroke-dasharray:none"
             stroke-linecap="round"
             id="path917" />
          <path
             d="M 55.901,90 C 49.307,83.414 53.356,71.083 50.77,62.137 48.133,55.264 46.071,52.475 45.88,45.513 H 44.057 C 43.208,50.46 43.742,55.646 45.88,61.108 42.559,56.465 39.059,53.061 35.349,51.12 l -1.881,1.897 c 4.548,3.296 8.895,9.794 8.498,17.247 0,8.93 -1.175,14.565 -6.223,19.735 h 20.158 z"
             style="opacity:1;fill:#784a38;fill-rule:nonzero;stroke:none;stroke-width:1;stroke-linecap:butt;stroke-linejoin:miter;stroke-miterlimit:10;stroke-dasharray:none"
             stroke-linecap="round"
             id="path919" />
          <path
             d="m 78.207,39.96 c 0,-2.186 -1.063,-4.12 -2.695,-5.328 0.531,-0.953 0.835,-2.05 0.835,-3.218 0,-3.662 -2.969,-6.631 -6.631,-6.631 -0.375,0 -0.74,0.039 -1.097,0.098 -0.351,-0.531 -0.775,-1.007 -1.26,-1.417 0.489,-0.925 0.769,-1.977 0.769,-3.096 0,-3.662 -2.969,-6.631 -6.631,-6.631 -0.526,0 -1.035,0.068 -1.526,0.183 -1.216,-1.466 -3.051,-2.4 -5.105,-2.4 -0.375,0 -0.74,0.039 -1.097,0.098 -1.187,-1.796 -3.221,-2.982 -5.534,-2.982 -2.374,0 -4.451,1.252 -5.622,3.127 -0.561,-0.154 -1.149,-0.243 -1.759,-0.243 -2.678,0 -4.98,1.591 -6.027,3.877 -0.421,-0.084 -0.855,-0.129 -1.3,-0.129 -3.446,0 -6.276,2.628 -6.599,5.989 -0.351,-0.058 -0.71,-0.095 -1.077,-0.095 -3.662,0 -6.631,2.969 -6.631,6.631 0,0.189 0.013,0.375 0.028,0.56 -1.382,1.215 -2.258,2.991 -2.258,4.976 0,0.866 0.171,1.691 0.473,2.449 -2.808,0.771 -4.874,3.335 -4.874,6.389 0,1.851 0.76,3.524 1.984,4.727 -0.592,0.993 -0.939,2.149 -0.939,3.388 0,3.662 2.969,6.631 6.631,6.631 0.996,0 1.937,-0.226 2.785,-0.619 1.201,1.698 3.176,2.81 5.414,2.81 2.359,0 4.425,-1.236 5.601,-3.092 3.411,-0.274 6.095,-3.123 6.095,-6.604 0,-0.289 -0.025,-0.571 -0.061,-0.85 0.557,0.152 1.141,0.24 1.746,0.24 1.517,0 2.911,-0.515 4.029,-1.373 0.069,0.1 0.141,0.197 0.216,0.293 -0.006,0.104 -0.016,0.206 -0.016,0.311 0,3.177 2.575,5.752 5.752,5.752 0.846,0 1.647,-0.187 2.371,-0.516 0.393,3.287 3.176,5.839 6.569,5.839 3.425,0 6.243,-2.597 6.594,-5.93 0.254,0.029 0.51,0.049 0.772,0.049 3.662,0 6.631,-2.969 6.631,-6.631 0,-0.267 -0.02,-0.528 -0.051,-0.787 2.078,-1.119 3.495,-3.316 3.495,-5.845 z"
             style="opacity:1;fill:#76a134;fill-rule:nonzero;stroke:none;stroke-width:1;stroke-linecap:butt;stroke-linejoin:miter;stroke-miterlimit:10;stroke-dasharray:none"
             stroke-linecap="round"
             id="path921" />
          <path
             d="m 53.531,38.027 c 0.823,-0.584 1.361,-1.542 1.361,-2.628 0,-0.965 -0.426,-1.828 -1.097,-2.418 0.541,-0.576 0.874,-1.349 0.874,-2.202 0,-1.121 -0.573,-2.108 -1.442,-2.685 0.03,-0.175 0.048,-0.354 0.048,-0.538 0,-1.78 -1.443,-3.223 -3.223,-3.223 -0.046,0 -0.091,0.005 -0.136,0.007 -0.044,-0.147 -0.1,-0.289 -0.164,-0.427 1.008,-0.545 1.694,-1.611 1.694,-2.837 0,-1.299 -0.771,-2.416 -1.878,-2.926 0.305,-0.493 0.485,-1.072 0.485,-1.694 0,-1.78 -1.443,-3.223 -3.223,-3.223 -1.55,0 -2.844,1.095 -3.152,2.553 -0.339,-0.121 -0.702,-0.19 -1.082,-0.19 -1.587,0 -2.904,1.149 -3.171,2.659 -0.462,-0.255 -0.992,-0.402 -1.557,-0.402 -1.78,0 -3.223,1.443 -3.223,3.223 0,0.045 0.005,0.089 0.007,0.133 -0.364,-0.143 -0.76,-0.224 -1.174,-0.224 -1.78,0 -3.223,1.443 -3.223,3.223 0,0.985 0.443,1.866 1.14,2.457 -0.697,0.591 -1.14,1.472 -1.14,2.457 0,0.129 0.01,0.256 0.024,0.381 -0.453,-0.242 -0.969,-0.381 -1.519,-0.381 -1.78,0 -3.223,1.443 -3.223,3.223 -1.78,0 -3.223,1.443 -3.223,3.223 0,0.679 0.211,1.308 0.57,1.828 -1.329,0.398 -2.298,1.628 -2.298,3.087 0,0.469 0.102,0.913 0.282,1.315 -1.053,0.53 -1.776,1.618 -1.776,2.877 0,1.78 1.443,3.223 3.223,3.223 0.549,0 1.066,-0.138 1.519,-0.381 -0.015,0.125 -0.024,0.252 -0.024,0.381 0,1.78 1.443,3.223 3.223,3.223 1.78,0 3.223,-1.443 3.223,-3.223 0,-0.424 -0.084,-0.827 -0.232,-1.198 0.368,0.146 0.768,0.229 1.188,0.229 1.163,0 2.179,-0.618 2.746,-1.541 0.567,0.923 1.583,1.541 2.745,1.541 1.098,0 2.066,-0.55 2.648,-1.388 0.503,0.324 1.1,0.515 1.743,0.515 1.555,0 2.852,-1.101 3.156,-2.565 0.358,0.137 0.745,0.215 1.151,0.215 1.392,0 2.574,-0.884 3.025,-2.119 0.451,1.235 1.633,2.119 3.025,2.119 1.78,0 3.223,-1.443 3.223,-3.223 -0.005,-0.985 -0.447,-1.865 -1.143,-2.456 z"
             style="opacity:1;fill:#84b33d;fill-rule:nonzero;stroke:none;stroke-width:1;stroke-linecap:butt;stroke-linejoin:miter;stroke-miterlimit:10;stroke-dasharray:none"
             stroke-linecap="round"
             id="path923" />
          <path
             d="m 71.035,40.933 c 0,-1.78 -1.443,-3.223 -3.223,-3.223 -1.035,0 -1.954,0.49 -2.544,1.249 -0.219,-0.047 -0.446,-0.073 -0.679,-0.073 -1.78,0 -3.223,1.443 -3.223,3.223 0,0.422 0.083,0.824 0.231,1.193 -0.959,0.559 -1.605,1.595 -1.605,2.784 0,1.78 1.443,3.223 3.223,3.223 1.006,0 1.903,-0.461 2.495,-1.183 0.472,0.271 1.018,0.428 1.601,0.428 1.78,0 3.223,-1.443 3.223,-3.223 0,-0.726 -0.243,-1.394 -0.648,-1.933 0.702,-0.59 1.149,-1.475 1.149,-2.465 z"
             style="opacity:1;fill:#84b33d;fill-rule:nonzero;stroke:none;stroke-width:1;stroke-linecap:butt;stroke-linejoin:miter;stroke-miterlimit:10;stroke-dasharray:none"
             stroke-linecap="round"
             id="path925" />
        </g>
      </g>
      <rect
         style="fill:#d0404a;fill-opacity:1;stroke:none;stroke-width:1;stroke-linecap:round;stroke-linejoin:round;stroke-opacity:0.45098"
         id="rect931"
         width="33.861607"
         height="41.134541"
         x="51.15308"
         y="61.34766" />
    </g>
    <g
       id="g1130"
       transform="translate(-1.0716613e-5)">
      <g
         transform="matrix(0.14499393,0,0,-0.14499393,289.48435,136.17803)"
         id="g951">
        <g
           style="opacity:1;fill:none;fill-rule:nonzero;stroke:none;stroke-width:0;stroke-linecap:butt;stroke-linejoin:miter;stroke-miterlimit:10;stroke-dasharray:none"
           transform="matrix(3.89,0,0,3.89,-175.05,-175.05)"
           id="g949">
          <path
             d="m 85.211,47.425 c 0.3,-0.873 0.465,-1.809 0.465,-2.785 0,-1.807 -0.561,-3.482 -1.516,-4.864 1.814,-1.571 2.964,-3.89 2.964,-6.478 0,-4.36 -3.258,-7.957 -7.471,-8.496 0.315,-0.853 0.488,-1.774 0.488,-2.736 0,-4.358 -3.533,-7.892 -7.892,-7.892 0,-4.358 -3.533,-7.892 -7.892,-7.892 -1.805,0 -3.468,0.608 -4.798,1.628 -1.439,-1.929 -3.738,-3.178 -6.33,-3.178 -0.218,0 -0.434,0.011 -0.648,0.029 C 51.37,1.959 48.583,0 45.338,0 41.939,0 39.042,2.149 37.931,5.163 37.325,5.014 36.692,4.933 36.04,4.933 c -3.997,0 -7.297,2.971 -7.818,6.825 -0.246,-0.023 -0.496,-0.036 -0.748,-0.036 -4.288,0 -7.775,3.421 -7.886,7.683 -0.458,-0.083 -0.929,-0.128 -1.411,-0.128 -4.358,0 -7.892,3.533 -7.892,7.892 0,2.127 0.843,4.055 2.21,5.474 -0.202,-0.013 -0.406,-0.022 -0.611,-0.022 -5.106,0 -9.246,4.139 -9.246,9.246 0,4.114 2.688,7.599 6.403,8.798 -0.576,1.206 -0.899,2.555 -0.899,3.981 0,5.106 4.139,9.246 9.246,9.246 1.341,0 2.613,-0.288 3.763,-0.801 1.671,1.655 3.969,2.678 6.506,2.678 4.198,0 7.74,-2.799 8.868,-6.632 1.338,0.986 2.991,1.57 4.781,1.57 1.334,0 2.591,-0.326 3.699,-0.899 C 45.003,59.877 45,59.945 45,60.014 c 0,4.358 3.533,7.892 7.892,7.892 2.822,0 5.297,-1.483 6.692,-3.711 1.524,1.395 3.554,2.247 5.784,2.247 4.008,0 7.372,-2.752 8.309,-6.469 1.428,1.064 3.198,1.694 5.116,1.694 4.732,0 8.569,-3.836 8.569,-8.569 -10e-4,-2.176 -0.814,-4.162 -2.151,-5.673 z"
             style="opacity:1;fill:#688f2c;fill-rule:nonzero;stroke:none;stroke-width:1;stroke-linecap:butt;stroke-linejoin:miter;stroke-miterlimit:10;stroke-dasharray:none"
             stroke-linecap="round"
             id="path933" />
          <path
             d="m 62.429,55.079 c -3.442,2.75 -7.5,4.261 -10.288,4.743 l -0.354,3.539 c 3.682,-1.565 7.559,-3.932 11.632,-7.099 z"
             style="opacity:1;fill:#694031;fill-rule:nonzero;stroke:none;stroke-width:1;stroke-linecap:butt;stroke-linejoin:miter;stroke-miterlimit:10;stroke-dasharray:none"
             stroke-linecap="round"
             id="path935" />
          <path
             d="m 27.063,53.474 c 5.13,4.099 11.18,6.352 15.335,7.07 l 0.528,5.275 C 37.438,63.486 31.659,59.959 25.588,55.237 Z"
             style="opacity:1;fill:#694031;fill-rule:nonzero;stroke:none;stroke-width:1;stroke-linecap:butt;stroke-linejoin:miter;stroke-miterlimit:10;stroke-dasharray:none"
             stroke-linecap="round"
             id="path937" />
          <path
             d="m 52.991,48.359 c -0.835,7.356 -3.874,13.97 -6.621,17.85 l 3.776,4.633 c 2.527,-6.231 4.335,-13.647 5.426,-22.25 z"
             style="opacity:1;fill:#694031;fill-rule:nonzero;stroke:none;stroke-width:1;stroke-linecap:butt;stroke-linejoin:miter;stroke-miterlimit:10;stroke-dasharray:none"
             stroke-linecap="round"
             id="path939" />
          <path
             d="M 55.901,90 C 49.307,83.414 53.356,71.083 50.77,62.137 48.133,55.264 46.071,52.475 45.88,45.513 H 44.057 C 43.208,50.46 43.742,55.646 45.88,61.108 42.559,56.465 39.059,53.061 35.349,51.12 l -1.881,1.897 c 4.548,3.296 8.895,9.794 8.498,17.247 0,8.93 -1.175,14.565 -6.223,19.735 h 20.158 z"
             style="opacity:1;fill:#784a38;fill-rule:nonzero;stroke:none;stroke-width:1;stroke-linecap:butt;stroke-linejoin:miter;stroke-miterlimit:10;stroke-dasharray:none"
             stroke-linecap="round"
             id="path941" />
          <path
             d="m 78.207,39.96 c 0,-2.186 -1.063,-4.12 -2.695,-5.328 0.531,-0.953 0.835,-2.05 0.835,-3.218 0,-3.662 -2.969,-6.631 -6.631,-6.631 -0.375,0 -0.74,0.039 -1.097,0.098 -0.351,-0.531 -0.775,-1.007 -1.26,-1.417 0.489,-0.925 0.769,-1.977 0.769,-3.096 0,-3.662 -2.969,-6.631 -6.631,-6.631 -0.526,0 -1.035,0.068 -1.526,0.183 -1.216,-1.466 -3.051,-2.4 -5.105,-2.4 -0.375,0 -0.74,0.039 -1.097,0.098 -1.187,-1.796 -3.221,-2.982 -5.534,-2.982 -2.374,0 -4.451,1.252 -5.622,3.127 -0.561,-0.154 -1.149,-0.243 -1.759,-0.243 -2.678,0 -4.98,1.591 -6.027,3.877 -0.421,-0.084 -0.855,-0.129 -1.3,-0.129 -3.446,0 -6.276,2.628 -6.599,5.989 -0.351,-0.058 -0.71,-0.095 -1.077,-0.095 -3.662,0 -6.631,2.969 -6.631,6.631 0,0.189 0.013,0.375 0.028,0.56 -1.382,1.215 -2.258,2.991 -2.258,4.976 0,0.866 0.171,1.691 0.473,2.449 -2.808,0.771 -4.874,3.335 -4.874,6.389 0,1.851 0.76,3.524 1.984,4.727 -0.592,0.993 -0.939,2.149 -0.939,3.388 0,3.662 2.969,6.631 6.631,6.631 0.996,0 1.937,-0.226 2.785,-0.619 1.201,1.698 3.176,2.81 5.414,2.81 2.359,0 4.425,-1.236 5.601,-3.092 3.411,-0.274 6.095,-3.123 6.095,-6.604 0,-0.289 -0.025,-0.571 -0.061,-0.85 0.557,0.152 1.141,0.24 1.746,0.24 1.517,0 2.911,-0.515 4.029,-1.373 0.069,0.1 0.141,0.197 0.216,0.293 -0.006,0.104 -0.016,0.206 -0.016,0.311 0,3.177 2.575,5.752 5.752,5.752 0.846,0 1.647,-0.187 2.371,-0.516 0.393,3.287 3.176,5.839 6.569,5.839 3.425,0 6.243,-2.597 6.594,-5.93 0.254,0.029 0.51,0.049 0.772,0.049 3.662,0 6.631,-2.969 6.631,-6.631 0,-0.267 -0.02,-0.528 -0.051,-0.787 2.078,-1.119 3.495,-3.316 3.495,-5.845 z"
             style="opacity:1;fill:#76a134;fill-rule:nonzero;stroke:none;stroke-width:1;stroke-linecap:butt;stroke-linejoin:miter;stroke-miterlimit:10;stroke-dasharray:none"
             stroke-linecap="round"
             id="path943" />
          <path
             d="m 53.531,38.027 c 0.823,-0.584 1.361,-1.542 1.361,-2.628 0,-0.965 -0.426,-1.828 -1.097,-2.418 0.541,-0.576 0.874,-1.349 0.874,-2.202 0,-1.121 -0.573,-2.108 -1.442,-2.685 0.03,-0.175 0.048,-0.354 0.048,-0.538 0,-1.78 -1.443,-3.223 -3.223,-3.223 -0.046,0 -0.091,0.005 -0.136,0.007 -0.044,-0.147 -0.1,-0.289 -0.164,-0.427 1.008,-0.545 1.694,-1.611 1.694,-2.837 0,-1.299 -0.771,-2.416 -1.878,-2.926 0.305,-0.493 0.485,-1.072 0.485,-1.694 0,-1.78 -1.443,-3.223 -3.223,-3.223 -1.55,0 -2.844,1.095 -3.152,2.553 -0.339,-0.121 -0.702,-0.19 -1.082,-0.19 -1.587,0 -2.904,1.149 -3.171,2.659 -0.462,-0.255 -0.992,-0.402 -1.557,-0.402 -1.78,0 -3.223,1.443 -3.223,3.223 0,0.045 0.005,0.089 0.007,0.133 -0.364,-0.143 -0.76,-0.224 -1.174,-0.224 -1.78,0 -3.223,1.443 -3.223,3.223 0,0.985 0.443,1.866 1.14,2.457 -0.697,0.591 -1.14,1.472 -1.14,2.457 0,0.129 0.01,0.256 0.024,0.381 -0.453,-0.242 -0.969,-0.381 -1.519,-0.381 -1.78,0 -3.223,1.443 -3.223,3.223 -1.78,0 -3.223,1.443 -3.223,3.223 0,0.679 0.211,1.308 0.57,1.828 -1.329,0.398 -2.298,1.628 -2.298,3.087 0,0.469 0.102,0.913 0.282,1.315 -1.053,0.53 -1.776,1.618 -1.776,2.877 0,1.78 1.443,3.223 3.223,3.223 0.549,0 1.066,-0.138 1.519,-0.381 -0.015,0.125 -0.024,0.252 -0.024,0.381 0,1.78 1.443,3.223 3.223,3.223 1.78,0 3.223,-1.443 3.223,-3.223 0,-0.424 -0.084,-0.827 -0.232,-1.198 0.368,0.146 0.768,0.229 1.188,0.229 1.163,0 2.179,-0.618 2.746,-1.541 0.567,0.923 1.583,1.541 2.745,1.541 1.098,0 2.066,-0.55 2.648,-1.388 0.503,0.324 1.1,0.515 1.743,0.515 1.555,0 2.852,-1.101 3.156,-2.565 0.358,0.137 0.745,0.215 1.151,0.215 1.392,0 2.574,-0.884 3.025,-2.119 0.451,1.235 1.633,2.119 3.025,2.119 1.78,0 3.223,-1.443 3.223,-3.223 -0.005,-0.985 -0.447,-1.865 -1.143,-2.456 z"
             style="opacity:1;fill:#84b33d;fill-rule:nonzero;stroke:none;stroke-width:1;stroke-linecap:butt;stroke-linejoin:miter;stroke-miterlimit:10;stroke-dasharray:none"
             stroke-linecap="round"
             id="path945" />
          <path
             d="m 71.035,40.933 c 0,-1.78 -1.443,-3.223 -3.223,-3.223 -1.035,0 -1.954,0.49 -2.544,1.249 -0.219,-0.047 -0.446,-0.073 -0.679,-0.073 -1.78,0 -3.223,1.443 -3.223,3.223 0,0.422 0.083,0.824 0.231,1.193 -0.959,0.559 -1.605,1.595 -1.605,2.784 0,1.78 1.443,3.223 3.223,3.223 1.006,0 1.903,-0.461 2.495,-1.183 0.472,0.271 1.018,0.428 1.601,0.428 1.78,0 3.223,-1.443 3.223,-3.223 0,-0.726 -0.243,-1.394 -0.648,-1.933 0.702,-0.59 1.149,-1.475 1.149,-2.465 z"
             style="opacity:1;fill:#84b33d;fill-rule:nonzero;stroke:none;stroke-width:1;stroke-linecap:butt;stroke-linejoin:miter;stroke-miterlimit:10;stroke-dasharray:none"
             stroke-linecap="round"
             id="path947" />
        </g>
      </g>
      <rect
         style="fill:#d0404a;fill-opacity:1;stroke:none;stroke-width:1;stroke-linecap:round;stroke-linejoin:round;stroke-opacity:0.45098"
         id="rect953"
         width="33.861607"
         height="41.134541"
         x="272.55353"
         y="61.34766" />
    </g>
    <g
       id="g1166"
       transform="translate(1.2088929)">
      <g
         transform="matrix(2.5165421,0,0,2.5165421,225.33444,79.355534)"
         ns0:version="1.4.0"
         ns0:texconverter="pdflatex"
         ns0:pdfconverter="inkscape"
         ns0:text="$\\cdots$"
         ns0:preamble="/home/liz/Dropbox/Math/SVGs/Liz-Inkscape.sty"
         ns0:scale="0.75"
         ns0:alignment="middle center"
         ns0:jacobian_sqrt="0.264583"
         id="g987">
        <defs
           id="defs965">
          <g
             id="g963">
            <symbol
               overflow="visible"
               id="symbol957">
              <path
                 style="stroke:none;stroke-width:0"
                 d=""
                 id="path955" />
            </symbol>
            <symbol
               overflow="visible"
               id="symbol961">
              <path
                 style="stroke:none;stroke-width:0"
                 d="m 1.90625,-2.5 c 0,-0.28125 -0.234375,-0.515625 -0.515625,-0.515625 -0.296875,0 -0.53125,0.234375 -0.53125,0.515625 0,0.296875 0.234375,0.53125 0.53125,0.53125 0.28125,0 0.515625,-0.234375 0.515625,-0.53125 z m 0,0"
                 id="path959" />
            </symbol>
          </g>
        </defs>
        <g
           id="g985"
           transform="translate(-149.571,-131.749)">
          <g
             style="fill:#000000;fill-opacity:1"
             id="g971">
            <g
               id="g969"
               transform="translate(148.712,134.765)">
              <path
                 style="stroke:none;stroke-width:0"
                 d="m 1.90625,-2.5 c 0,-0.28125 -0.234375,-0.515625 -0.515625,-0.515625 -0.296875,0 -0.53125,0.234375 -0.53125,0.515625 0,0.296875 0.234375,0.53125 0.53125,0.53125 0.28125,0 0.515625,-0.234375 0.515625,-0.53125 z m 0,0"
                 id="path967" />
            </g>
          </g>
          <g
             style="fill:#000000;fill-opacity:1"
             id="g977">
            <g
               id="g975"
               transform="translate(153.143,134.765)">
              <path
                 style="stroke:none;stroke-width:0"
                 d="m 1.90625,-2.5 c 0,-0.28125 -0.234375,-0.515625 -0.515625,-0.515625 -0.296875,0 -0.53125,0.234375 -0.53125,0.515625 0,0.296875 0.234375,0.53125 0.53125,0.53125 0.28125,0 0.515625,-0.234375 0.515625,-0.53125 z m 0,0"
                 id="path973" />
            </g>
          </g>
          <g
             style="fill:#000000;fill-opacity:1"
             id="g983">
            <g
               id="g981"
               transform="translate(157.565,134.765)">
              <path
                 style="stroke:none;stroke-width:0"
                 d="m 1.90625,-2.5 c 0,-0.28125 -0.234375,-0.515625 -0.515625,-0.515625 -0.296875,0 -0.53125,0.234375 -0.53125,0.515625 0,0.296875 0.234375,0.53125 0.53125,0.53125 0.28125,0 0.515625,-0.234375 0.515625,-0.53125 z m 0,0"
                 id="path979" />
            </g>
          </g>
        </g>
      </g>
      <g
         transform="matrix(2.5165421,0,0,2.5165421,226.0668,134.85983)"
         ns0:version="1.4.0"
         ns0:texconverter="pdflatex"
         ns0:pdfconverter="inkscape"
         ns0:text="$\\cdots$"
         ns0:preamble="/home/liz/Dropbox/Math/SVGs/Liz-Inkscape.sty"
         ns0:scale="0.75"
         ns0:alignment="middle center"
         ns0:jacobian_sqrt="0.264583"
         id="g1021">
        <defs
           id="defs999">
          <g
             id="g997">
            <symbol
               overflow="visible"
               id="symbol991">
              <path
                 style="stroke:none;stroke-width:0"
                 d=""
                 id="path989" />
            </symbol>
            <symbol
               overflow="visible"
               id="symbol995">
              <path
                 style="stroke:none;stroke-width:0"
                 d="m 1.90625,-2.5 c 0,-0.28125 -0.234375,-0.515625 -0.515625,-0.515625 -0.296875,0 -0.53125,0.234375 -0.53125,0.515625 0,0.296875 0.234375,0.53125 0.53125,0.53125 0.28125,0 0.515625,-0.234375 0.515625,-0.53125 z m 0,0"
                 id="path993" />
            </symbol>
          </g>
        </defs>
        <g
           id="g1019"
           transform="translate(-149.571,-131.749)">
          <g
             style="fill:#000000;fill-opacity:1"
             id="g1005">
            <g
               id="g1003"
               transform="translate(148.712,134.765)">
              <path
                 style="stroke:none;stroke-width:0"
                 d="m 1.90625,-2.5 c 0,-0.28125 -0.234375,-0.515625 -0.515625,-0.515625 -0.296875,0 -0.53125,0.234375 -0.53125,0.515625 0,0.296875 0.234375,0.53125 0.53125,0.53125 0.28125,0 0.515625,-0.234375 0.515625,-0.53125 z m 0,0"
                 id="path1001" />
            </g>
          </g>
          <g
             style="fill:#000000;fill-opacity:1"
             id="g1011">
            <g
               id="g1009"
               transform="translate(153.143,134.765)">
              <path
                 style="stroke:none;stroke-width:0"
                 d="m 1.90625,-2.5 c 0,-0.28125 -0.234375,-0.515625 -0.515625,-0.515625 -0.296875,0 -0.53125,0.234375 -0.53125,0.515625 0,0.296875 0.234375,0.53125 0.53125,0.53125 0.28125,0 0.515625,-0.234375 0.515625,-0.53125 z m 0,0"
                 id="path1007" />
            </g>
          </g>
          <g
             style="fill:#000000;fill-opacity:1"
             id="g1017">
            <g
               id="g1015"
               transform="translate(157.565,134.765)">
              <path
                 style="stroke:none;stroke-width:0"
                 d="m 1.90625,-2.5 c 0,-0.28125 -0.234375,-0.515625 -0.515625,-0.515625 -0.296875,0 -0.53125,0.234375 -0.53125,0.515625 0,0.296875 0.234375,0.53125 0.53125,0.53125 0.28125,0 0.515625,-0.234375 0.515625,-0.53125 z m 0,0"
                 id="path1013" />
            </g>
          </g>
        </g>
      </g>
    </g>
    <g
       id="g1104"
       transform="translate(0.78205625)">
      <g
         transform="matrix(0.14499393,0,0,-0.14499393,127.28045,136.17803)"
         id="g1041">
        <g
           style="opacity:1;fill:none;fill-rule:nonzero;stroke:none;stroke-width:0;stroke-linecap:butt;stroke-linejoin:miter;stroke-miterlimit:10;stroke-dasharray:none"
           transform="matrix(3.89,0,0,3.89,-175.05,-175.05)"
           id="g1039">
          <path
             d="m 85.211,47.425 c 0.3,-0.873 0.465,-1.809 0.465,-2.785 0,-1.807 -0.561,-3.482 -1.516,-4.864 1.814,-1.571 2.964,-3.89 2.964,-6.478 0,-4.36 -3.258,-7.957 -7.471,-8.496 0.315,-0.853 0.488,-1.774 0.488,-2.736 0,-4.358 -3.533,-7.892 -7.892,-7.892 0,-4.358 -3.533,-7.892 -7.892,-7.892 -1.805,0 -3.468,0.608 -4.798,1.628 -1.439,-1.929 -3.738,-3.178 -6.33,-3.178 -0.218,0 -0.434,0.011 -0.648,0.029 C 51.37,1.959 48.583,0 45.338,0 41.939,0 39.042,2.149 37.931,5.163 37.325,5.014 36.692,4.933 36.04,4.933 c -3.997,0 -7.297,2.971 -7.818,6.825 -0.246,-0.023 -0.496,-0.036 -0.748,-0.036 -4.288,0 -7.775,3.421 -7.886,7.683 -0.458,-0.083 -0.929,-0.128 -1.411,-0.128 -4.358,0 -7.892,3.533 -7.892,7.892 0,2.127 0.843,4.055 2.21,5.474 -0.202,-0.013 -0.406,-0.022 -0.611,-0.022 -5.106,0 -9.246,4.139 -9.246,9.246 0,4.114 2.688,7.599 6.403,8.798 -0.576,1.206 -0.899,2.555 -0.899,3.981 0,5.106 4.139,9.246 9.246,9.246 1.341,0 2.613,-0.288 3.763,-0.801 1.671,1.655 3.969,2.678 6.506,2.678 4.198,0 7.74,-2.799 8.868,-6.632 1.338,0.986 2.991,1.57 4.781,1.57 1.334,0 2.591,-0.326 3.699,-0.899 C 45.003,59.877 45,59.945 45,60.014 c 0,4.358 3.533,7.892 7.892,7.892 2.822,0 5.297,-1.483 6.692,-3.711 1.524,1.395 3.554,2.247 5.784,2.247 4.008,0 7.372,-2.752 8.309,-6.469 1.428,1.064 3.198,1.694 5.116,1.694 4.732,0 8.569,-3.836 8.569,-8.569 -10e-4,-2.176 -0.814,-4.162 -2.151,-5.673 z"
             style="opacity:1;fill:#688f2c;fill-rule:nonzero;stroke:none;stroke-width:1;stroke-linecap:butt;stroke-linejoin:miter;stroke-miterlimit:10;stroke-dasharray:none"
             stroke-linecap="round"
             id="path1023" />
          <path
             d="m 62.429,55.079 c -3.442,2.75 -7.5,4.261 -10.288,4.743 l -0.354,3.539 c 3.682,-1.565 7.559,-3.932 11.632,-7.099 z"
             style="opacity:1;fill:#694031;fill-rule:nonzero;stroke:none;stroke-width:1;stroke-linecap:butt;stroke-linejoin:miter;stroke-miterlimit:10;stroke-dasharray:none"
             stroke-linecap="round"
             id="path1025" />
          <path
             d="m 27.063,53.474 c 5.13,4.099 11.18,6.352 15.335,7.07 l 0.528,5.275 C 37.438,63.486 31.659,59.959 25.588,55.237 Z"
             style="opacity:1;fill:#694031;fill-rule:nonzero;stroke:none;stroke-width:1;stroke-linecap:butt;stroke-linejoin:miter;stroke-miterlimit:10;stroke-dasharray:none"
             stroke-linecap="round"
             id="path1027" />
          <path
             d="m 52.991,48.359 c -0.835,7.356 -3.874,13.97 -6.621,17.85 l 3.776,4.633 c 2.527,-6.231 4.335,-13.647 5.426,-22.25 z"
             style="opacity:1;fill:#694031;fill-rule:nonzero;stroke:none;stroke-width:1;stroke-linecap:butt;stroke-linejoin:miter;stroke-miterlimit:10;stroke-dasharray:none"
             stroke-linecap="round"
             id="path1029" />
          <path
             d="M 55.901,90 C 49.307,83.414 53.356,71.083 50.77,62.137 48.133,55.264 46.071,52.475 45.88,45.513 H 44.057 C 43.208,50.46 43.742,55.646 45.88,61.108 42.559,56.465 39.059,53.061 35.349,51.12 l -1.881,1.897 c 4.548,3.296 8.895,9.794 8.498,17.247 0,8.93 -1.175,14.565 -6.223,19.735 h 20.158 z"
             style="opacity:1;fill:#784a38;fill-rule:nonzero;stroke:none;stroke-width:1;stroke-linecap:butt;stroke-linejoin:miter;stroke-miterlimit:10;stroke-dasharray:none"
             stroke-linecap="round"
             id="path1031" />
          <path
             d="m 78.207,39.96 c 0,-2.186 -1.063,-4.12 -2.695,-5.328 0.531,-0.953 0.835,-2.05 0.835,-3.218 0,-3.662 -2.969,-6.631 -6.631,-6.631 -0.375,0 -0.74,0.039 -1.097,0.098 -0.351,-0.531 -0.775,-1.007 -1.26,-1.417 0.489,-0.925 0.769,-1.977 0.769,-3.096 0,-3.662 -2.969,-6.631 -6.631,-6.631 -0.526,0 -1.035,0.068 -1.526,0.183 -1.216,-1.466 -3.051,-2.4 -5.105,-2.4 -0.375,0 -0.74,0.039 -1.097,0.098 -1.187,-1.796 -3.221,-2.982 -5.534,-2.982 -2.374,0 -4.451,1.252 -5.622,3.127 -0.561,-0.154 -1.149,-0.243 -1.759,-0.243 -2.678,0 -4.98,1.591 -6.027,3.877 -0.421,-0.084 -0.855,-0.129 -1.3,-0.129 -3.446,0 -6.276,2.628 -6.599,5.989 -0.351,-0.058 -0.71,-0.095 -1.077,-0.095 -3.662,0 -6.631,2.969 -6.631,6.631 0,0.189 0.013,0.375 0.028,0.56 -1.382,1.215 -2.258,2.991 -2.258,4.976 0,0.866 0.171,1.691 0.473,2.449 -2.808,0.771 -4.874,3.335 -4.874,6.389 0,1.851 0.76,3.524 1.984,4.727 -0.592,0.993 -0.939,2.149 -0.939,3.388 0,3.662 2.969,6.631 6.631,6.631 0.996,0 1.937,-0.226 2.785,-0.619 1.201,1.698 3.176,2.81 5.414,2.81 2.359,0 4.425,-1.236 5.601,-3.092 3.411,-0.274 6.095,-3.123 6.095,-6.604 0,-0.289 -0.025,-0.571 -0.061,-0.85 0.557,0.152 1.141,0.24 1.746,0.24 1.517,0 2.911,-0.515 4.029,-1.373 0.069,0.1 0.141,0.197 0.216,0.293 -0.006,0.104 -0.016,0.206 -0.016,0.311 0,3.177 2.575,5.752 5.752,5.752 0.846,0 1.647,-0.187 2.371,-0.516 0.393,3.287 3.176,5.839 6.569,5.839 3.425,0 6.243,-2.597 6.594,-5.93 0.254,0.029 0.51,0.049 0.772,0.049 3.662,0 6.631,-2.969 6.631,-6.631 0,-0.267 -0.02,-0.528 -0.051,-0.787 2.078,-1.119 3.495,-3.316 3.495,-5.845 z"
             style="opacity:1;fill:#76a134;fill-rule:nonzero;stroke:none;stroke-width:1;stroke-linecap:butt;stroke-linejoin:miter;stroke-miterlimit:10;stroke-dasharray:none"
             stroke-linecap="round"
             id="path1033" />
          <path
             d="m 53.531,38.027 c 0.823,-0.584 1.361,-1.542 1.361,-2.628 0,-0.965 -0.426,-1.828 -1.097,-2.418 0.541,-0.576 0.874,-1.349 0.874,-2.202 0,-1.121 -0.573,-2.108 -1.442,-2.685 0.03,-0.175 0.048,-0.354 0.048,-0.538 0,-1.78 -1.443,-3.223 -3.223,-3.223 -0.046,0 -0.091,0.005 -0.136,0.007 -0.044,-0.147 -0.1,-0.289 -0.164,-0.427 1.008,-0.545 1.694,-1.611 1.694,-2.837 0,-1.299 -0.771,-2.416 -1.878,-2.926 0.305,-0.493 0.485,-1.072 0.485,-1.694 0,-1.78 -1.443,-3.223 -3.223,-3.223 -1.55,0 -2.844,1.095 -3.152,2.553 -0.339,-0.121 -0.702,-0.19 -1.082,-0.19 -1.587,0 -2.904,1.149 -3.171,2.659 -0.462,-0.255 -0.992,-0.402 -1.557,-0.402 -1.78,0 -3.223,1.443 -3.223,3.223 0,0.045 0.005,0.089 0.007,0.133 -0.364,-0.143 -0.76,-0.224 -1.174,-0.224 -1.78,0 -3.223,1.443 -3.223,3.223 0,0.985 0.443,1.866 1.14,2.457 -0.697,0.591 -1.14,1.472 -1.14,2.457 0,0.129 0.01,0.256 0.024,0.381 -0.453,-0.242 -0.969,-0.381 -1.519,-0.381 -1.78,0 -3.223,1.443 -3.223,3.223 -1.78,0 -3.223,1.443 -3.223,3.223 0,0.679 0.211,1.308 0.57,1.828 -1.329,0.398 -2.298,1.628 -2.298,3.087 0,0.469 0.102,0.913 0.282,1.315 -1.053,0.53 -1.776,1.618 -1.776,2.877 0,1.78 1.443,3.223 3.223,3.223 0.549,0 1.066,-0.138 1.519,-0.381 -0.015,0.125 -0.024,0.252 -0.024,0.381 0,1.78 1.443,3.223 3.223,3.223 1.78,0 3.223,-1.443 3.223,-3.223 0,-0.424 -0.084,-0.827 -0.232,-1.198 0.368,0.146 0.768,0.229 1.188,0.229 1.163,0 2.179,-0.618 2.746,-1.541 0.567,0.923 1.583,1.541 2.745,1.541 1.098,0 2.066,-0.55 2.648,-1.388 0.503,0.324 1.1,0.515 1.743,0.515 1.555,0 2.852,-1.101 3.156,-2.565 0.358,0.137 0.745,0.215 1.151,0.215 1.392,0 2.574,-0.884 3.025,-2.119 0.451,1.235 1.633,2.119 3.025,2.119 1.78,0 3.223,-1.443 3.223,-3.223 -0.005,-0.985 -0.447,-1.865 -1.143,-2.456 z"
             style="opacity:1;fill:#84b33d;fill-rule:nonzero;stroke:none;stroke-width:1;stroke-linecap:butt;stroke-linejoin:miter;stroke-miterlimit:10;stroke-dasharray:none"
             stroke-linecap="round"
             id="path1035" />
          <path
             d="m 71.035,40.933 c 0,-1.78 -1.443,-3.223 -3.223,-3.223 -1.035,0 -1.954,0.49 -2.544,1.249 -0.219,-0.047 -0.446,-0.073 -0.679,-0.073 -1.78,0 -3.223,1.443 -3.223,3.223 0,0.422 0.083,0.824 0.231,1.193 -0.959,0.559 -1.605,1.595 -1.605,2.784 0,1.78 1.443,3.223 3.223,3.223 1.006,0 1.903,-0.461 2.495,-1.183 0.472,0.271 1.018,0.428 1.601,0.428 1.78,0 3.223,-1.443 3.223,-3.223 0,-0.726 -0.243,-1.394 -0.648,-1.933 0.702,-0.59 1.149,-1.475 1.149,-2.465 z"
             style="opacity:1;fill:#84b33d;fill-rule:nonzero;stroke:none;stroke-width:1;stroke-linecap:butt;stroke-linejoin:miter;stroke-miterlimit:10;stroke-dasharray:none"
             stroke-linecap="round"
             id="path1037" />
        </g>
      </g>
      <rect
         style="fill:#d0404a;fill-opacity:1;stroke:none;stroke-width:1;stroke-linecap:round;stroke-linejoin:round;stroke-opacity:0.45098"
         id="rect1043"
         width="33.861607"
         height="41.134541"
         x="110.34965"
         y="61.34766" />
    </g>
    <g
       id="g1117"
       transform="translate(-0.42684565)">
      <g
         transform="matrix(0.14499393,0,0,-0.14499393,189.67688,136.17803)"
         id="g1063">
        <g
           style="opacity:1;fill:none;fill-rule:nonzero;stroke:none;stroke-width:0;stroke-linecap:butt;stroke-linejoin:miter;stroke-miterlimit:10;stroke-dasharray:none"
           transform="matrix(3.89,0,0,3.89,-175.05,-175.05)"
           id="g1061">
          <path
             d="m 85.211,47.425 c 0.3,-0.873 0.465,-1.809 0.465,-2.785 0,-1.807 -0.561,-3.482 -1.516,-4.864 1.814,-1.571 2.964,-3.89 2.964,-6.478 0,-4.36 -3.258,-7.957 -7.471,-8.496 0.315,-0.853 0.488,-1.774 0.488,-2.736 0,-4.358 -3.533,-7.892 -7.892,-7.892 0,-4.358 -3.533,-7.892 -7.892,-7.892 -1.805,0 -3.468,0.608 -4.798,1.628 -1.439,-1.929 -3.738,-3.178 -6.33,-3.178 -0.218,0 -0.434,0.011 -0.648,0.029 C 51.37,1.959 48.583,0 45.338,0 41.939,0 39.042,2.149 37.931,5.163 37.325,5.014 36.692,4.933 36.04,4.933 c -3.997,0 -7.297,2.971 -7.818,6.825 -0.246,-0.023 -0.496,-0.036 -0.748,-0.036 -4.288,0 -7.775,3.421 -7.886,7.683 -0.458,-0.083 -0.929,-0.128 -1.411,-0.128 -4.358,0 -7.892,3.533 -7.892,7.892 0,2.127 0.843,4.055 2.21,5.474 -0.202,-0.013 -0.406,-0.022 -0.611,-0.022 -5.106,0 -9.246,4.139 -9.246,9.246 0,4.114 2.688,7.599 6.403,8.798 -0.576,1.206 -0.899,2.555 -0.899,3.981 0,5.106 4.139,9.246 9.246,9.246 1.341,0 2.613,-0.288 3.763,-0.801 1.671,1.655 3.969,2.678 6.506,2.678 4.198,0 7.74,-2.799 8.868,-6.632 1.338,0.986 2.991,1.57 4.781,1.57 1.334,0 2.591,-0.326 3.699,-0.899 C 45.003,59.877 45,59.945 45,60.014 c 0,4.358 3.533,7.892 7.892,7.892 2.822,0 5.297,-1.483 6.692,-3.711 1.524,1.395 3.554,2.247 5.784,2.247 4.008,0 7.372,-2.752 8.309,-6.469 1.428,1.064 3.198,1.694 5.116,1.694 4.732,0 8.569,-3.836 8.569,-8.569 -10e-4,-2.176 -0.814,-4.162 -2.151,-5.673 z"
             style="opacity:1;fill:#688f2c;fill-rule:nonzero;stroke:none;stroke-width:1;stroke-linecap:butt;stroke-linejoin:miter;stroke-miterlimit:10;stroke-dasharray:none"
             stroke-linecap="round"
             id="path1045" />
          <path
             d="m 62.429,55.079 c -3.442,2.75 -7.5,4.261 -10.288,4.743 l -0.354,3.539 c 3.682,-1.565 7.559,-3.932 11.632,-7.099 z"
             style="opacity:1;fill:#694031;fill-rule:nonzero;stroke:none;stroke-width:1;stroke-linecap:butt;stroke-linejoin:miter;stroke-miterlimit:10;stroke-dasharray:none"
             stroke-linecap="round"
             id="path1047" />
          <path
             d="m 27.063,53.474 c 5.13,4.099 11.18,6.352 15.335,7.07 l 0.528,5.275 C 37.438,63.486 31.659,59.959 25.588,55.237 Z"
             style="opacity:1;fill:#694031;fill-rule:nonzero;stroke:none;stroke-width:1;stroke-linecap:butt;stroke-linejoin:miter;stroke-miterlimit:10;stroke-dasharray:none"
             stroke-linecap="round"
             id="path1049" />
          <path
             d="m 52.991,48.359 c -0.835,7.356 -3.874,13.97 -6.621,17.85 l 3.776,4.633 c 2.527,-6.231 4.335,-13.647 5.426,-22.25 z"
             style="opacity:1;fill:#694031;fill-rule:nonzero;stroke:none;stroke-width:1;stroke-linecap:butt;stroke-linejoin:miter;stroke-miterlimit:10;stroke-dasharray:none"
             stroke-linecap="round"
             id="path1051" />
          <path
             d="M 55.901,90 C 49.307,83.414 53.356,71.083 50.77,62.137 48.133,55.264 46.071,52.475 45.88,45.513 H 44.057 C 43.208,50.46 43.742,55.646 45.88,61.108 42.559,56.465 39.059,53.061 35.349,51.12 l -1.881,1.897 c 4.548,3.296 8.895,9.794 8.498,17.247 0,8.93 -1.175,14.565 -6.223,19.735 h 20.158 z"
             style="opacity:1;fill:#784a38;fill-rule:nonzero;stroke:none;stroke-width:1;stroke-linecap:butt;stroke-linejoin:miter;stroke-miterlimit:10;stroke-dasharray:none"
             stroke-linecap="round"
             id="path1053" />
          <path
             d="m 78.207,39.96 c 0,-2.186 -1.063,-4.12 -2.695,-5.328 0.531,-0.953 0.835,-2.05 0.835,-3.218 0,-3.662 -2.969,-6.631 -6.631,-6.631 -0.375,0 -0.74,0.039 -1.097,0.098 -0.351,-0.531 -0.775,-1.007 -1.26,-1.417 0.489,-0.925 0.769,-1.977 0.769,-3.096 0,-3.662 -2.969,-6.631 -6.631,-6.631 -0.526,0 -1.035,0.068 -1.526,0.183 -1.216,-1.466 -3.051,-2.4 -5.105,-2.4 -0.375,0 -0.74,0.039 -1.097,0.098 -1.187,-1.796 -3.221,-2.982 -5.534,-2.982 -2.374,0 -4.451,1.252 -5.622,3.127 -0.561,-0.154 -1.149,-0.243 -1.759,-0.243 -2.678,0 -4.98,1.591 -6.027,3.877 -0.421,-0.084 -0.855,-0.129 -1.3,-0.129 -3.446,0 -6.276,2.628 -6.599,5.989 -0.351,-0.058 -0.71,-0.095 -1.077,-0.095 -3.662,0 -6.631,2.969 -6.631,6.631 0,0.189 0.013,0.375 0.028,0.56 -1.382,1.215 -2.258,2.991 -2.258,4.976 0,0.866 0.171,1.691 0.473,2.449 -2.808,0.771 -4.874,3.335 -4.874,6.389 0,1.851 0.76,3.524 1.984,4.727 -0.592,0.993 -0.939,2.149 -0.939,3.388 0,3.662 2.969,6.631 6.631,6.631 0.996,0 1.937,-0.226 2.785,-0.619 1.201,1.698 3.176,2.81 5.414,2.81 2.359,0 4.425,-1.236 5.601,-3.092 3.411,-0.274 6.095,-3.123 6.095,-6.604 0,-0.289 -0.025,-0.571 -0.061,-0.85 0.557,0.152 1.141,0.24 1.746,0.24 1.517,0 2.911,-0.515 4.029,-1.373 0.069,0.1 0.141,0.197 0.216,0.293 -0.006,0.104 -0.016,0.206 -0.016,0.311 0,3.177 2.575,5.752 5.752,5.752 0.846,0 1.647,-0.187 2.371,-0.516 0.393,3.287 3.176,5.839 6.569,5.839 3.425,0 6.243,-2.597 6.594,-5.93 0.254,0.029 0.51,0.049 0.772,0.049 3.662,0 6.631,-2.969 6.631,-6.631 0,-0.267 -0.02,-0.528 -0.051,-0.787 2.078,-1.119 3.495,-3.316 3.495,-5.845 z"
             style="opacity:1;fill:#76a134;fill-rule:nonzero;stroke:none;stroke-width:1;stroke-linecap:butt;stroke-linejoin:miter;stroke-miterlimit:10;stroke-dasharray:none"
             stroke-linecap="round"
             id="path1055" />
          <path
             d="m 53.531,38.027 c 0.823,-0.584 1.361,-1.542 1.361,-2.628 0,-0.965 -0.426,-1.828 -1.097,-2.418 0.541,-0.576 0.874,-1.349 0.874,-2.202 0,-1.121 -0.573,-2.108 -1.442,-2.685 0.03,-0.175 0.048,-0.354 0.048,-0.538 0,-1.78 -1.443,-3.223 -3.223,-3.223 -0.046,0 -0.091,0.005 -0.136,0.007 -0.044,-0.147 -0.1,-0.289 -0.164,-0.427 1.008,-0.545 1.694,-1.611 1.694,-2.837 0,-1.299 -0.771,-2.416 -1.878,-2.926 0.305,-0.493 0.485,-1.072 0.485,-1.694 0,-1.78 -1.443,-3.223 -3.223,-3.223 -1.55,0 -2.844,1.095 -3.152,2.553 -0.339,-0.121 -0.702,-0.19 -1.082,-0.19 -1.587,0 -2.904,1.149 -3.171,2.659 -0.462,-0.255 -0.992,-0.402 -1.557,-0.402 -1.78,0 -3.223,1.443 -3.223,3.223 0,0.045 0.005,0.089 0.007,0.133 -0.364,-0.143 -0.76,-0.224 -1.174,-0.224 -1.78,0 -3.223,1.443 -3.223,3.223 0,0.985 0.443,1.866 1.14,2.457 -0.697,0.591 -1.14,1.472 -1.14,2.457 0,0.129 0.01,0.256 0.024,0.381 -0.453,-0.242 -0.969,-0.381 -1.519,-0.381 -1.78,0 -3.223,1.443 -3.223,3.223 -1.78,0 -3.223,1.443 -3.223,3.223 0,0.679 0.211,1.308 0.57,1.828 -1.329,0.398 -2.298,1.628 -2.298,3.087 0,0.469 0.102,0.913 0.282,1.315 -1.053,0.53 -1.776,1.618 -1.776,2.877 0,1.78 1.443,3.223 3.223,3.223 0.549,0 1.066,-0.138 1.519,-0.381 -0.015,0.125 -0.024,0.252 -0.024,0.381 0,1.78 1.443,3.223 3.223,3.223 1.78,0 3.223,-1.443 3.223,-3.223 0,-0.424 -0.084,-0.827 -0.232,-1.198 0.368,0.146 0.768,0.229 1.188,0.229 1.163,0 2.179,-0.618 2.746,-1.541 0.567,0.923 1.583,1.541 2.745,1.541 1.098,0 2.066,-0.55 2.648,-1.388 0.503,0.324 1.1,0.515 1.743,0.515 1.555,0 2.852,-1.101 3.156,-2.565 0.358,0.137 0.745,0.215 1.151,0.215 1.392,0 2.574,-0.884 3.025,-2.119 0.451,1.235 1.633,2.119 3.025,2.119 1.78,0 3.223,-1.443 3.223,-3.223 -0.005,-0.985 -0.447,-1.865 -1.143,-2.456 z"
             style="opacity:1;fill:#84b33d;fill-rule:nonzero;stroke:none;stroke-width:1;stroke-linecap:butt;stroke-linejoin:miter;stroke-miterlimit:10;stroke-dasharray:none"
             stroke-linecap="round"
             id="path1057" />
          <path
             d="m 71.035,40.933 c 0,-1.78 -1.443,-3.223 -3.223,-3.223 -1.035,0 -1.954,0.49 -2.544,1.249 -0.219,-0.047 -0.446,-0.073 -0.679,-0.073 -1.78,0 -3.223,1.443 -3.223,3.223 0,0.422 0.083,0.824 0.231,1.193 -0.959,0.559 -1.605,1.595 -1.605,2.784 0,1.78 1.443,3.223 3.223,3.223 1.006,0 1.903,-0.461 2.495,-1.183 0.472,0.271 1.018,0.428 1.601,0.428 1.78,0 3.223,-1.443 3.223,-3.223 0,-0.726 -0.243,-1.394 -0.648,-1.933 0.702,-0.59 1.149,-1.475 1.149,-2.465 z"
             style="opacity:1;fill:#84b33d;fill-rule:nonzero;stroke:none;stroke-width:1;stroke-linecap:butt;stroke-linejoin:miter;stroke-miterlimit:10;stroke-dasharray:none"
             stroke-linecap="round"
             id="path1059" />
        </g>
      </g>
      <rect
         style="fill:#d0404a;fill-opacity:1;stroke:none;stroke-width:1;stroke-linecap:round;stroke-linejoin:round;stroke-opacity:0.45098"
         id="rect1065"
         width="33.861607"
         height="41.134541"
         x="172.74608"
         y="61.34766" />
    </g>
  </g>
</svg>
